<svg version="1.1" id="Layer_1" xmlns="http://www.w3.org/2000/svg" x="0" y="0" viewBox="0 0 70 70" xml:space="preserve"><style>.st1,.st2{fill:#fff}.st2{fill-rule:evenodd;clip-rule:evenodd}</style><path d="M15 0h40c8.3 0 15 6.7 15 15v40c0 8.3-6.7 15-15 15H15C6.7 70 0 63.3 0 55V15C0 6.7 6.7 0 15 0z" fill="#cf51ce"/><path class="st1" d="M14.2 51.6h21.6V54c0 1.3 1.1 2.4 2.4 2.4h3.2c.7 0 1.4-.3 1.8-.8.6.5 1.3.8 2.2.8H55c1.3 0 2.4-1.1 2.4-2.4 0-.4-.1-.8-.3-1.2 1.1-.7 1.5-2.1.8-3.2.6-.4 1-1 1.1-1.7.1-.7-.1-1.4-.6-1.9.6-.7.8-1.7.4-2.6-.4-.9-1.2-1.4-2.2-1.4h-2.4V17.2c0-1.8-1.4-3.2-3.2-3.2H14.2c-1.8 0-3.2 1.4-3.2 3.2v31.2c0 1.8 1.4 3.2 3.2 3.2zm27.2 3.2h-3.2c-.4 0-.8-.4-.8-.8v-7.2c0-.4.4-.8.8-.8h3.2c.4 0 .8.4.8.8V54c0 .4-.4.8-.8.8zm16-10.4c0 .4-.4.8-.8.8h-2.4c-.4 0-.8.4-.8.8s.4.8.8.8h2.4c.4 0 .8.4.8.8s-.4.8-.8.8h-2.4c-.4 0-.8.4-.8.8s.4.8.8.8h1.6c.4 0 .8.4.8.8s-.4.8-.8.8h-1.6c-.4 0-.8.4-.8.8s.4.8.8.8h.8c.4 0 .8.4.8.8s-.4.8-.8.8h-9.6c-.9 0-1.6-.7-1.6-1.6v-6.7c1-.6 1.8-1.6 2.1-2.7.7-2.1 1.1-4.4 1.1-6.6 0-.1.1-.2.2-.2.3-.1 1-.2 1.7 1.1.4.8.6 1.6.5 2.5v2.3c0 .4.4.8.8.8h6.4c.4-.1.8.3.8.7zM51 42v-1.5c0-1.1-.2-2.2-.7-3.2-.8-1.5-2-2.2-3.4-2-.9.2-1.5.9-1.5 1.8 0 2.1-.3 4.1-1 6.1-.2.7-.7 1.4-1.4 1.8-.4-.4-1-.6-1.6-.7h-3.2c-1.3 0-2.4 1.1-2.4 2.4V50H14.2c-.9 0-1.6-.7-1.6-1.6V22h40v20H51zM14.2 15.6H51c.9 0 1.6.7 1.6 1.6v3.2h-40v-3.2c0-.9.7-1.6 1.6-1.6z"/><path class="st2" d="M15.8 18c0 .4-.4.8-.8.8s-.8-.4-.8-.8.4-.8.8-.8.8.4.8.8zM19 18c0 .4-.4.8-.8.8s-.8-.4-.8-.8.4-.8.8-.8.8.4.8.8zM22.2 18c0 .4-.4.8-.8.8s-.8-.4-.8-.8.4-.8.8-.8.8.4.8.8z"/><path class="st1" d="M17.4 38.8h12.8c1.3 0 2.4-1.1 2.4-2.4v-9.6c0-1.3-1.1-2.4-2.4-2.4H17.4c-1.3 0-2.4 1.1-2.4 2.4v9.6c0 1.3 1.1 2.4 2.4 2.4zm2-1.6l3.7-5.8 1.8 2.2-2.3 3.6h-3.2zm10.8 0h-5.7l4.2-6.6 2.3 2.9v2.9c0 .4-.4.8-.8.8zM16.6 26.8c0-.4.4-.8.8-.8h12.8c.4 0 .8.4.8.8v4.1l-1.8-2.2c-.2-.2-.4-.3-.7-.3-.3 0-.5.1-.6.4l-2.2 3.4-2.1-2.7c-.2-.2-.4-.3-.7-.3-.3 0-.5.1-.6.4l-4.9 7.6h-.1c-.4 0-.8-.4-.8-.8v-9.6h.1z"/><path class="st2" d="M19.8 28.4c0 .4-.4.8-.8.8s-.8-.4-.8-.8.4-.8.8-.8.8.4.8.8zM49.4 25.2H35.8c-.4 0-.8.4-.8.8s.4.8.8.8h13.6c.4 0 .8-.4.8-.8s-.4-.8-.8-.8zM49.4 28.4H35.8c-.4 0-.8.4-.8.8s.4.8.8.8h13.6c.4 0 .8-.4.8-.8s-.4-.8-.8-.8zM49.4 31.6H35.8c-.4 0-.8.4-.8.8s.4.8.8.8h13.6c.4 0 .8-.4.8-.8s-.4-.8-.8-.8zM43 34.8h-7.2c-.4 0-.8.4-.8.8s.4.8.8.8H43c.4 0 .8-.4.8-.8s-.4-.8-.8-.8zM34.2 42H15.8c-.4 0-.8.4-.8.8s.4.8.8.8h18.4c.4 0 .8-.4.8-.8s-.4-.8-.8-.8zM31.8 45.2h-16c-.4 0-.8.4-.8.8s.4.8.8.8h16c.4 0 .8-.4.8-.8s-.4-.8-.8-.8z"/></svg>