<svg width="48" height="49" fill="none" xmlns="http://www.w3.org/2000/svg"><path d="M0 44.075v-19.95c.3-.975 1.05-1.5 1.875-1.95.3-.15.6-.3.9-.375.375-.075.45-.3.45-.6V7.1c0-3.375 2.4-5.85 5.625-5.85h33.375c1.575 0 2.55.975 2.55 2.625V10.925c2.25.75 3.225 2.025 3.225 4.35v23.25c0 .45 0 .9-.15 1.35-.45 1.8-2.025 3-4.05 3H23.25v.3c.075 1.125-.45 1.95-1.425 2.475-.825.45-1.725.825-2.55 1.05-2.4.675-4.95.9-7.425.9-2.925 0-5.85-.225-8.7-1.2C1.8 46.025.525 45.5 0 44.075zM46.425 22.85v-.525-7.2c0-1.725-.975-2.7-2.7-2.7H9c-1.5 0-2.85-.45-3.975-1.425-.075-.075-.15-.075-.225-.15v10.2c.15 0 .3 0 .45-.075 3.975-.825 7.95-.825 12-.15 1.575.225 3.15.675 4.575 1.5.9.675 1.425 1.425 1.425 2.625-.075 5.25 0 10.425 0 15.675v.6h20.625c1.575 0 2.625-.975 2.625-2.625v-7.275-.45h-3.75c-.6 0-1.2-.075-1.8-.3-1.725-.675-2.7-2.625-2.325-4.425.375-1.875 1.95-3.225 3.825-3.225 1.2-.075 2.55-.075 3.975-.075zM43.2 7.625H7.575c-.825 0-1.2-.3-1.2-.825 0-.525.375-.825 1.2-.825H43.2V3.95c0-.9-.225-1.125-1.125-1.125h-33c-.375 0-.75 0-1.05.075C6 3.35 4.65 5.225 4.8 7.1c.225 2.1 1.875 3.675 3.975 3.675h34.05c.15 0 .225 0 .375-.075V7.625zm-31.575 14.4c-2.25 0-4.5.15-6.675.75-.975.3-1.95.675-2.85 1.125-.675.375-.675.75 0 1.125.525.3 1.05.525 1.575.75 1.725.6 3.45.825 5.25.975 3.15.225 6.3.15 9.45-.6.9-.225 1.8-.6 2.7-1.05.75-.375.75-.825 0-1.275-.45-.3-.975-.525-1.5-.675-2.625-.9-5.25-1.05-7.95-1.125zm-10.05 4.65c0 .675.075 1.35 0 2.025-.075.6.225 1.05.75 1.275 1.125.375 2.175.9 3.375 1.125 3.15.675 6.3.675 9.525.375a18.39 18.39 0 005.25-1.2c.825-.375 1.35-.825 1.2-1.875-.075-.525 0-1.125 0-1.65-6.525 2.325-13.8 2.325-20.1-.075zm0 9.6c0 .75.075 1.425 0 2.1 0 .6.225.975.675 1.125.825.375 1.65.75 2.55.975 4.2 1.05 8.475.975 12.75.225 1.2-.225 2.4-.525 3.45-1.2.225-.15.6-.375.6-.675.075-.825 0-1.725 0-2.625-3.225 1.5-6.6 1.8-9.975 1.8-3.45.075-6.825-.225-10.05-1.725zm0 4.8v2.175c0 .525.15.9.6 1.125.825.375 1.575.75 2.4.975 4.275 1.05 8.625 1.05 12.975.225 1.125-.225 2.25-.75 3.375-1.125.225-.075.6-.375.6-.6.075-.825 0-1.725 0-2.625-6.3 2.25-13.65 2.25-19.95-.15zm20.025-9.6c-3.225 1.5-6.6 1.8-9.975 1.8s-6.825-.3-9.975-1.8V33.8c0 .375.15.675.45.825.6.3 1.2.6 1.8.825 1.95.675 4.05.9 6.075.975 2.85.15 5.7 0 8.475-.75.9-.225 1.8-.675 2.625-1.05.225-.075.525-.45.525-.675v-2.475zm24.75-2.25v-4.8h-4.125c-1.2.075-2.175 1.125-2.175 2.325 0 1.2.9 2.325 2.1 2.4 1.35.15 2.775.075 4.2.075z" fill="#CF51CE"/><path d="M38.025 15.65H32.25c-.3 0-.6-.15-.825-.3-.15-.15-.225-.6-.075-.75.15-.224.45-.45.75-.45.6-.075 1.2 0 1.8 0h10.2c.45.075.825.375.825.825 0 .45-.375.75-.825.75h-4.2c-.675-.075-1.275-.075-1.875-.075zM27.974 15.651h-.825c-.45 0-.75-.3-.75-.75s.3-.825.75-.825h1.725c.45 0 .75.375.75.825 0 .45-.375.75-.825.75h-.825zM42.374 27.65a.832.832 0 01-.825-.825c0-.45.375-.825.825-.825.45 0 .75.375.75.75.075.525-.3.9-.75.9z" fill="#CF51CE"/></svg>