<svg width="24" height="24" viewBox="0 0 24 24" fill="none" xmlns="http://www.w3.org/2000/svg">
<path d="M15.1225 16.327L16.7379 14.7116C16.9554 14.4967 17.2307 14.3496 17.5303 14.2882C17.8298 14.2267 18.1408 14.2536 18.4254 14.3654L20.3941 15.1515C20.6817 15.2682 20.9283 15.4675 21.1029 15.7242C21.2774 15.9808 21.3721 16.2834 21.3749 16.5938V20.1996C21.3732 20.4107 21.3288 20.6194 21.2444 20.8129C21.16 21.0064 21.0373 21.1809 20.8837 21.3257C20.73 21.4706 20.5487 21.5829 20.3505 21.6558C20.1524 21.7287 19.9415 21.7608 19.7307 21.7501C5.93494 20.8919 3.15128 9.20918 2.62484 4.73801C2.6004 4.51845 2.62273 4.2962 2.69035 4.08588C2.75798 3.87556 2.86937 3.68195 3.0172 3.51777C3.16502 3.3536 3.34593 3.22258 3.54803 3.13335C3.75013 3.04411 3.96883 2.99867 4.18975 3.00003H7.67293C7.98375 3.00095 8.2872 3.09484 8.54423 3.26962C8.80126 3.4444 9.00012 3.69208 9.11524 3.9808L9.9013 5.94956C10.0169 6.23302 10.0464 6.54425 9.98607 6.84438C9.92579 7.1445 9.77842 7.42021 9.56236 7.63706L7.94697 9.25245C7.94697 9.25245 8.87726 15.5481 15.1225 16.327Z" fill="#331A2F"/>
</svg>
