<?xml version="1.0" encoding="utf-8"?>
<!-- Generator: Adobe Illustrator 25.0.0, SVG Export Plug-In . SVG Version: 6.00 Build 0)  -->
<svg version="1.1" id="Layer_1" xmlns="http://www.w3.org/2000/svg" xmlns:xlink="http://www.w3.org/1999/xlink" x="0px" y="0px"
	 viewBox="0 0 70 70" style="enable-background:new 0 0 70 70;" xml:space="preserve">
<style type="text/css">
	.st0{fill:#CF51CE;}
	.st1{fill:#FFFFFF;}
</style>
<g>
	<path class="st0" d="M15,0h40c8.3,0,15,6.7,15,15v40c0,8.3-6.7,15-15,15H15C6.7,70,0,63.3,0,55V15C0,6.7,6.7,0,15,0z"/>
</g>
<path class="st1" d="M24.3,58.2c-0.9-0.4-1.3-1-1.2-1.9c0-0.5,0-1.1,0-1.5c-0.2,0-0.4,0-0.6,0c-2.3,0-4.5,0-6.9,0
	c-1.2,0-1.7-0.6-1.7-1.7c0-0.5,0-1,0-1.5c0-0.5,0.3-0.8,0.7-0.8s0.7,0.3,0.7,0.8c0,0.5,0,1,0,1.5c0,0.2,0.1,0.3,0.3,0.3
	c2.5,0,4.9,0,7.5,0c0-1.5,0-3,0-4.4c-1.8-1.2-2.4-1.9-2.7-4.1c-1.2,0-2.3-0.1-3.4,0c-1,0.1-1.6,1.2-1.7,2.2c0,0.5,0,0.9,0,1.4
	c0,0.5-0.3,0.8-0.7,0.8S14,48.8,14,48.3c0-0.5,0-1.1,0-1.5c0.1-1.2,0.7-2.1,1.6-2.8c0.1-0.1,0.2-0.1,0.3-0.2
	c-0.4-1.3-0.9-2.4-1.2-3.6c-1.5-6.2-0.6-11.9,3-17.2c0.2-0.3,0.3-0.5,0.1-0.9c-0.5-1-0.3-2.1,0.5-2.9s1.8-1.1,2.9-0.6
	c0.2,0.2,0.4,0.1,0.6-0.1c1.2-0.8,2.2-1.5,3.4-2.3c0.5-0.3,0.9-0.2,1.1,0.2c0.2,0.4,0,0.7-0.4,1c-1.1,0.8-2.1,1.5-3.2,2.2
	c-0.2,0.1-0.2,0.3-0.1,0.5c0.4,1,0.2,1.9-0.5,2.6c-0.7,0.8-1.5,1.1-2.6,0.8c-0.3-0.1-0.4,0-0.6,0.2c-1.9,2.8-3.1,5.9-3.4,9.4
	c-0.4,3.5,0.2,6.8,1.5,10c0.1,0.3,0.3,0.4,0.7,0.4c1.4,0,2.7,0,4,0c0.1-0.4,0-0.6-0.2-0.8c-1.2-1-1.9-2.1-2.1-3.6
	c0-0.3-0.1-0.4-0.4-0.5c-1.7-0.5-2.3-2.6-1.1-4c0.1-0.1,0.2-0.4,0.2-0.6c0-1.5,0-2.8,0-4.3c0-2.1,1.4-3.7,3.3-4.1
	c0.3-0.1,0.7-0.1,1-0.1c1.5,0,2.9,0,4.4,0c1,0,1.9,0.3,2.7,1c0.1,0.1,0.3,0.1,0.4,0.1c0.9-0.4,1.7-0.5,2.7-0.5c0.5,0,0.9,0,1.4,0
	c0.4,0,0.7,0.3,0.8,0.7c0,0.4-0.3,0.7-0.8,0.7c-0.7,0-1.4,0-2,0c-1.7,0-3.2,1.4-3.3,3.1c-0.1,1.5,0,2.9,0,4.4c0,0.1,0,0.1,0,0.2
	c0.4,0.1,0.4-0.1,0.5-0.4c0.2-1.1,0.6-2,1.2-2.9c0.4-0.5,0.6-0.6,1.2-0.4c1.8,0.6,3.6,1.1,5.5,1.3c0.5,0,1.1,0,1.5-0.1
	c0.3-0.1,0.7-0.3,0.9-0.5c0.4-0.4,0.9-0.4,1.2,0.1c0.5,0.8,0.9,1.6,1,2.5c0,0.2,0.1,0.5,0.4,0.4c0-0.1,0-0.2,0-0.3c0-1,0-1.9,0-2.9
	c0-0.5-0.1-0.8-0.7-0.8c-0.4-0.1-0.6-0.4-0.6-0.8c0-0.8-0.3-1.4-0.8-1.9c-0.6-0.7-1.4-1-2.1-1c-0.3,0-0.6,0-0.8,0
	c-0.4,0-0.7-0.3-0.7-0.7s0.3-0.7,0.7-0.7c1.1-0.1,2.1,0.1,3,0.6c1-1,2.1-1.3,3.4-1.2c1.5,0,2.8,0,4.3,0c1.8,0,3.3,1.2,3.8,2.9
	c0,0.1,0.1,0.3,0.3,0.4c0.6,0.4,0.9,1,0.9,1.6c0,1.1,0,2.2,0,3.3c0,0.2,0.1,0.5,0.3,0.6c1.3,1.4,0.7,3.4-1.1,4
	c-0.3,0.1-0.3,0.2-0.4,0.4c-0.3,1.5-1,2.7-2.1,3.7C49,42.5,49,42.8,48.8,43l0.1,0.1c0.7,0,1.3,0,1.9,0c0.7,0,1.5,0,2.1,0
	c0.4,0,0.5-0.1,0.7-0.4c1.4-3.2,1.8-6.5,1.5-9.9c-0.3-3.4-1.5-6.5-3.3-9.3c-0.2-0.3-0.4-0.4-0.7-0.3c-1,0.3-1.8,0-2.5-0.8
	c-0.7-0.8-0.9-1.6-0.5-2.6c-0.1,0-0.2-0.2-0.4-0.4c-2.8-2.2-6-3.7-9.6-4.3c-0.4-0.1-0.6,0-0.8,0.4c-1,1.7-3.5,1.6-4.4,0
	c-0.2-0.3-0.4-0.4-0.7-0.3c-1.2,0.3-2.3,0.6-3.5,0.9c-0.2,0.1-0.6,0.1-0.8,0c-0.2-0.1-0.4-0.4-0.3-0.6c0.1-0.2,0.3-0.6,0.5-0.6
	c1.2-0.4,2.2-0.6,3.4-0.9c0.1,0,0.1,0,0.2,0c0.6,0,0.9-0.2,1.1-0.8c0.5-1.2,1.4-1.6,2.5-1.6c1.1,0.1,1.9,0.6,2.3,1.6
	c0.2,0.4,0.4,0.5,0.8,0.6c3.9,0.6,7.3,2,10.2,4.5c0.3,0.2,0.5,0.3,0.9,0.1c1-0.4,2.1-0.1,2.8,0.7c0.7,0.8,0.9,1.9,0.4,2.9
	c-0.1,0.2-0.2,0.4,0,0.7c4.4,6.5,4.9,13.3,2,20.6c0,0.1-0.1,0.2-0.1,0.3c0.2,0.1,0.3,0.2,0.5,0.4c1,0.8,1.5,1.7,1.5,3
	c0,1.9,0,4,0,5.9c0,1.2-0.6,1.7-1.7,1.7c-2.3,0-4.5,0-6.9,0c-0.2,0-0.4,0-0.6,0c0,0.6,0,1.1,0,1.5c0.1,1-0.3,1.5-1.2,1.9
	C38.9,58.2,31.7,58.2,24.3,58.2z M40.2,47.1c-0.3,3.1-2.6,4.7-4.8,4.7c-1.2,0-2.1-0.3-3-1.1c-1.3-1-1.8-2.2-1.9-3.8
	c-1.1,0-2,0-3.1,0c-1.7,0-2.8,1.1-2.8,2.8c0,2.1,0,4.3,0,6.4c0,0.4,0.1,0.6,0.6,0.6c4,0,7.9,0,11.9,0c2.9,0,5.8,0,8.7,0
	c0.2,0,0.5,0.1,0.5-0.3c0-2.3,0-4.5,0-6.9c0-1.3-1.1-2.4-2.2-2.4C42.6,47,41.5,47.1,40.2,47.1z M39.9,33.9c-3.1,1.1-5.8-0.1-8.6-0.8
	c-0.1,0.1-0.2,0.2-0.2,0.4c-0.5,0.7-0.7,1.5-0.7,2.2c0,1.6-0.1,3.3,0.1,4.8c0.3,2.5,2.6,4.4,5.1,4.2s4.5-2.2,4.5-4.7
	c0-1.5,0-2.9,0-4.4C40.2,35,40,34.5,39.9,33.9z M21.1,32.4C21,33,20.8,33.5,20.7,34c-0.1,1.5-0.1,3,0,4.4c0.2,2.6,2.5,4.4,5,4
	c1.3-0.2,2.3-1,3-2c-0.1,0-0.2-0.1-0.2-0.1c-1.6-0.7-2.2-2.2-1.4-3.8c0-0.1,0.1-0.1,0.1-0.2c0-1,0-1.8,0-2.8
	C25.1,33.5,23.2,33,21.1,32.4z M55.2,53.3c0-2.2,0-4.4,0-6.5c0-1-0.8-1.9-1.7-2c-1.2-0.1-2.2,0-3.4,0c-0.3,2.1-0.9,3-2.7,4.1
	c0,1.5,0,3,0,4.4C50.1,53.3,52.6,53.3,55.2,53.3z M41.9,40.3c0,0.1,0.1,0.2,0.1,0.2c1,1.5,2.9,2.2,4.5,1.8c1.8-0.5,3.2-1.9,3.3-3.8
	c0.1-1.4,0.1-2.8,0-4.2c0-0.5-0.2-1.1-0.2-1.5c-2.2,1.1-4.3,0.4-6.4,0c0,1,0,1.9,0,2.9c0,0.3,0.1,0.5,0.2,0.7c0.7,1.4,0.2,3-1.3,3.6
	C42.1,40.2,42,40.3,41.9,40.3z M41.1,27.7c0.3,0.7,0.6,1.4,0.9,2c0.1,0.3,0.2,0.4,0.4,0.6c0.3,0.3,0.6,0.6,0.9,1
	c0.1,0.1,0.3,0.3,0.4,0.4c0.7,0.2,1.3,0.4,1.9,0.4c1,0.1,1.8,0.1,2.8,0c0.3,0,0.5-0.4,0.7-0.6c0.2-0.2,0.4-0.5,0.6-0.5
	c0.2,0,0.5,0.2,0.7,0.4c0.3,0.4,0.5,0.8,0.7,1.3c0-0.8,0-1.5,0-2c0-0.1-0.2-0.3-0.3-0.4c-0.5-0.1-0.7-0.4-0.7-0.9
	c-0.1-1.3-1.1-2.2-2.3-2.2c-1.6,0-3.3,0-4.9,0C42,27,41.5,27.3,41.1,27.7z M19.6,32.4c0.2-0.3,0.4-0.6,0.5-0.9
	c0.4-0.6,0.6-0.7,1.3-0.5c1,0.3,1.9,0.5,2.9,0.8c1,0.2,2,0.4,3.1,0.2c-0.1-1.6,0.1-3.2,1.3-4.4c-0.5-0.4-1-0.6-1.5-0.6
	c-1.6,0-3.2,0-4.8,0c-1.5,0-2.5,1-2.6,2.4C19.5,30.4,19.6,31.5,19.6,32.4z M37.3,45.8c-1.5,0.4-2,0.5-4.1,0c0.3,1.2-0.4,1.5-1.4,1.3
	c0.1,1.9,1.6,3.5,3.6,3.5c1.9-0.1,3.5-1.6,3.4-3.4C38.5,47,38,47,37.8,46.8C37.4,46.6,37.4,46.2,37.3,45.8z M23.7,47.5
	c0.5-0.5,1-0.9,1.5-1.3c0.8-0.5,1.5-0.6,2.5-0.6c0.2,0,0.4-0.1,0.4-0.2c0.1-0.2,0.1-0.5,0.2-0.9c-0.9,0.1-1.5-0.1-1.4-1.2
	c-1.3,0.4-2.4,0.4-3.6,0.1c-0.1,0.4-0.2,0.8-0.4,1c-0.2,0.2-0.7,0.2-1,0.3C21.8,45.9,22.6,47,23.7,47.5z M43.8,43.6
	c-0.2,1-0.2,1-1.3,1.2c-0.1,0.9,0,1,0.9,1c1.1,0,2,0.3,2.8,1.1c0.3,0.2,0.5,0.5,0.8,0.8c1.2-0.5,2-1.8,1.8-2.8
	c-1.1-0.1-1.2,0-1.3-1.2C46.2,43.9,45,43.8,43.8,43.6z M20.2,22.3c0.7,0,1.3-0.6,1.3-1.3s-0.6-1.3-1.2-1.3c-0.7,0-1.3,0.5-1.3,1.2
	C18.9,21.7,19.5,22.3,20.2,22.3z M35.3,15.5c0.7,0,1.3-0.6,1.3-1.3s-0.6-1.2-1.3-1.3c-0.7,0-1.3,0.6-1.3,1.3
	C34.1,15,34.6,15.5,35.3,15.5z M50.4,22.3c0.7,0,1.3-0.6,1.3-1.3s-0.5-1.2-1.2-1.3c-0.7,0-1.3,0.5-1.3,1.2
	C49.2,21.7,49.8,22.3,50.4,22.3z M31.8,45.7c0.1-0.6-0.1-1-0.5-1c-0.6-0.1-1.2,0-1.8,0c0,0.4-0.1,0.7-0.1,1
	C30.2,45.7,31,45.7,31.8,45.7z M41.1,44.7c-0.5,0-1,0-1.5,0c-0.7,0-1,0.3-0.8,1c0.8,0,1.5,0,2.4,0C41.2,45.3,41.2,45,41.1,44.7z
	 M42.4,43.3c0-0.9-0.9-1-1.2-1.5c-0.3,0.6-0.5,1-0.8,1.5C41.2,43.3,41.7,43.3,42.4,43.3z M30,43.3c-0.3-0.5-0.5-1-0.8-1.5
	c-0.3,0.3-0.5,0.5-0.8,0.7c-0.3,0.2-0.6,0.4-0.4,0.8C28.9,43.3,29.5,43.3,30,43.3z M29,38.9c0-0.8,0-1.5,0-2.2
	c-0.6,0.1-0.9,0.5-0.9,1C28.1,38.2,28.4,38.7,29,38.9z M41.6,36.7c0,0.8,0,1.5,0,2.2c0.6-0.1,0.9-0.6,0.9-1.1
	C42.5,37.3,42.1,36.9,41.6,36.7z M19.3,35.3c-0.5,0.2-0.7,0.6-0.7,1s0.2,0.7,0.7,0.9C19.3,36.6,19.3,36,19.3,35.3z M51.3,37.2
	c0.5-0.2,0.7-0.5,0.7-1c0-0.4-0.2-0.7-0.7-0.9C51.3,36,51.3,36.6,51.3,37.2z"/>
</svg>
