<?xml version="1.0" encoding="utf-8"?>
<!-- Generator: Adobe Illustrator 25.0.0, SVG Export Plug-In . SVG Version: 6.00 Build 0)  -->
<svg version="1.1" id="Layer_1" xmlns="http://www.w3.org/2000/svg" xmlns:xlink="http://www.w3.org/1999/xlink" x="0px" y="0px"
	 viewBox="0 0 70 70" style="enable-background:new 0 0 70 70;" xml:space="preserve">
<style type="text/css">
	.st0{fill:#CF51CE;}
	.st1{fill:#FFFFFF;}
</style>
<g>
	<path class="st0" d="M15,0h40c8.3,0,15,6.7,15,15v40c0,8.3-6.7,15-15,15H15C6.7,70,0,63.3,0,55V15C0,6.7,6.7,0,15,0z"/>
</g>
<path class="st1" d="M34.5,58.9c-0.9-0.2-1.7-0.5-2.3-1.2c-0.3-0.5-0.6-1.1-0.9-1.6c-0.1-0.3-0.2-0.4-0.5-0.5
	c-1.8-0.3-3.6-1-5.2-1.8c-2.6-1.3-4.9-3.1-6.7-5.3c-0.2-0.3-0.4-0.3-0.7-0.2c-1.7,0.6-3.6-0.1-4.5-1.7c-0.9-1.6-0.5-3.6,1-4.7
	c0.3-0.2,0.3-0.4,0.2-0.8c-1.2-4-1.2-8.1,0-12.2c0.1-0.3,0.1-0.5-0.2-0.7c-1.5-1.1-1.9-3.1-1-4.7c0.9-1.6,2.7-2.3,4.5-1.7
	c0.3,0.1,0.5,0,0.7-0.2c1.8-2.3,4.1-4,6.7-5.3c1.6-0.8,3.3-1.4,5-1.7c0.4-0.1,0.7-0.2,0.8-0.8c0.3-1.6,1.8-2.7,3.6-2.7
	c1.7,0,3.2,1.2,3.6,2.9c0.1,0.4,0.3,0.5,0.6,0.6c2.8,0.5,5.3,1.6,7.7,3.3c1.6,1.1,2.9,2.3,4.1,3.8c0.2,0.3,0.4,0.3,0.8,0.2
	c1.6-0.6,3.6,0.1,4.5,1.6c0.9,1.6,0.5,3.6-0.9,4.7c-0.3,0.2-0.3,0.4-0.3,0.8c1.2,4,1.2,8.1,0,12.2c-0.1,0.3-0.1,0.5,0.2,0.7
	c1.4,1,1.8,2.9,1.2,4.5c-0.8,1.6-2.5,2.6-4.2,2.1c-0.8-0.2-1.1,0-1.6,0.5c-3,3.4-6.8,5.6-11.3,6.6c-0.4,0.1-0.7,0.3-0.8,0.8
	c-0.4,1.4-1.4,2.3-2.7,2.7c-0.1,0-0.2,0.1-0.3,0.1C35.1,58.9,34.8,58.9,34.5,58.9z M34.9,24.5c-5.8,0-10.5,4.7-10.5,10.5
	c0,5.8,4.7,10.5,10.5,10.5S45.4,40.7,45.4,35C45.4,29.2,40.7,24.5,34.9,24.5z M31.4,15.9c-4.7,0.9-8.6,3.2-11.6,6.9
	c0.8,1,1.1,2.1,0.8,3.4c0,0.1,0.1,0.3,0.2,0.3c0.9,0.5,1.8,1,2.7,1.4c0.4,0.2,0.8,0.5,1.2,0.7C27.2,25,30.6,23,34.9,23
	s7.7,2.1,10.1,5.6c1.2-0.6,2.3-1.2,3.4-1.8c0.5-0.3,0.9-0.5,0.8-1.3c-0.2-1,0.2-1.9,0.9-2.7c-3-3.7-6.8-6-11.6-6.9
	c-0.5,1.4-1.4,2.3-2.9,2.6c0,1,0,2.1,0,3c-0.5,0-1,0-1.5,0c0-1,0-2.1,0-3C32.8,18.1,31.9,17.2,31.4,15.9z M19.8,47.2
	c3.1,3.7,6.8,6,11.6,6.9c0.5-1.4,1.4-2.3,2.9-2.6c0-1,0-2.1,0-3c0.5,0,1,0,1.5,0c0,1,0,2.1,0,3c1.4,0.3,2.3,1.2,2.8,2.6
	c4.7-1,8.6-3.2,11.6-6.9c-0.9-1.4-1-1.8-0.8-3.4c0-0.1-0.1-0.3-0.1-0.3c-1.3-0.8-2.7-1.4-4-2.2c-2.5,3.6-5.8,5.6-10.2,5.6
	s-7.7-2.1-10.2-5.6c-1.4,0.8-2.7,1.4-4,2.2c-0.1,0.1-0.2,0.2-0.1,0.3C20.9,45.1,20.6,46.2,19.8,47.2z M24.1,40
	c-1.4-3.4-1.4-6.7,0-10.1c-1.4-0.8-2.8-1.6-4.2-2.3c-1,1-2.1,1.4-3.4,1.3c-1.2,4-1.2,8,0,12.1c1.4-0.1,2.5,0.3,3.4,1.3
	C21.2,41.5,22.6,40.8,24.1,40z M50.1,42.3c0.9-0.9,1.9-1.4,3.2-1.4c0.1,0,0.3-0.2,0.3-0.3c0.7-2.2,1-4.4,0.8-6.7
	c-0.1-1.7-0.3-3.4-1-5c-1.3,0.1-2.4-0.3-3.3-1.2c-0.1-0.1-0.3-0.1-0.4,0c-0.6,0.3-1.2,0.7-1.8,1c-0.7,0.4-1.4,0.8-2.1,1.2
	c1.4,3.4,1.4,6.7,0,10.1C47.3,40.8,48.6,41.5,50.1,42.3z M34.9,17c1.2,0,2.3-1,2.3-2.2c0-1.2-1-2.3-2.2-2.3c-1.2,0-2.3,1-2.3,2.3
	C32.7,15.9,33.7,17,34.9,17z M19.2,25.2c0-1.2-1-2.3-2.3-2.3c-1.2,0-2.3,1-2.3,2.3c0,1.2,1,2.2,2.3,2.2
	C18.2,27.4,19.2,26.4,19.2,25.2z M55.1,25.2c0-1.2-1-2.3-2.2-2.3c-1.2,0-2.3,1-2.3,2.2c0,1.2,1,2.3,2.3,2.3
	C54.1,27.5,55.1,26.5,55.1,25.2z M19.2,44.7c0-1.2-1-2.3-2.3-2.3c-1.2,0-2.3,1-2.3,2.3c0,1.2,1,2.3,2.3,2.3
	C18.2,46.9,19.2,45.9,19.2,44.7z M55.1,44.7c0-1.2-1-2.3-2.2-2.3c-1.2,0-2.3,1-2.3,2.2c0,1.2,1,2.3,2.3,2.3
	C54.1,46.9,55.1,45.9,55.1,44.7z M34.9,53c-1.2,0-2.3,1-2.3,2.2c0,1.2,1,2.3,2.3,2.3c1.2,0,2.3-1,2.3-2.3C37.2,53.9,36.2,53,34.9,53
	z"/>
<path class="st1" d="M32.5,34.1c-1.4-1.3-1.6-2.9-1.2-4.6c0.4-1.8,2.2-2.9,3.9-2.8c2,0.2,3.3,1.7,3.4,3.7c0.1,1.4-0.2,2.6-1.4,3.6
	c0.2,0.1,0.4,0.3,0.6,0.5c1.1,0.7,2.3,1.4,3.4,2c0.3,0.1,0.4,0.3,0.3,0.7c0,0.7,0,1.4,0,2c0.1,0.9-0.4,1.5-1.2,1.8
	c-0.8,0.3-1.6,0.5-2.3,0.5c-2.5,0.2-5,0.3-7.5-0.1c-0.4-0.1-0.8-0.2-1.2-0.3c-0.8-0.3-1.3-1-1.2-1.8c0-0.7,0-1.4,0-2.1
	c0-0.3,0.1-0.4,0.3-0.5c1.2-0.7,2.3-1.4,3.4-2.1C32.1,34.4,32.3,34.3,32.5,34.1z M34.5,40.2c1.4-0.1,2.3-0.1,3.3-0.1
	c0.6-0.1,1.3-0.2,1.9-0.3c0.3-0.1,0.4-0.3,0.4-0.6c0.2-1.1-0.2-1.8-1.3-2.3c-0.1-0.1-0.3-0.1-0.3-0.2c-0.8-0.5-1.6-1.2-2.5-1.7
	c-0.1-0.1-0.3-0.1-0.4-0.1c-0.5,0-1,0-1.6,0c-0.1,0-0.3,0-0.4,0.1c-0.9,1-2.1,1.5-3.1,2.1c-0.7,0.4-1,0.8-0.9,1.6c0.1,1,0.1,1,1,1.2
	c0.1,0,0.1,0,0.1,0C32.2,40,33.6,40.2,34.5,40.2z M32.7,30.8c0,0.2,0,0.4,0,0.6c0.1,1.2,1,2,2.1,2.1c1.1,0.1,2.1-0.7,2.3-1.8
	c0.1-0.6,0.1-1.2-0.1-1.8c-0.3-1.4-2-2.1-3.2-1.4C33,29,32.7,29.8,32.7,30.8z"/>
<path class="st1" d="M35.7,15.4c-0.5,0-1,0-1.4,0c0-0.5,0-1,0-1.4c0.5,0,1,0,1.4,0C35.7,14.5,35.7,15,35.7,15.4z"/>
<path class="st1" d="M17.7,25.9c-0.5,0-1,0-1.4,0c0-0.5,0-1,0-1.4c0.5,0,1,0,1.4,0C17.7,25,17.7,25.4,17.7,25.9z"/>
<path class="st1" d="M53.6,24.5c0,0.5,0,1,0,1.4c-0.5,0-1,0-1.4,0c0-0.5,0-1,0-1.4C52.7,24.5,53.2,24.5,53.6,24.5z"/>
<path class="st1" d="M17.7,45.4c-0.5,0-1,0-1.4,0c0-0.5,0-1,0-1.4c0.5,0,1,0,1.4,0C17.7,44.5,17.7,45,17.7,45.4z"/>
<path class="st1" d="M53.6,44c0,0.5,0,1,0,1.4c-0.5,0-1,0-1.4,0c0-0.5,0-1,0-1.4C52.7,44,53.2,44,53.6,44z"/>
<path class="st1" d="M35.7,54.5c0,0.5,0,1,0,1.4c-0.5,0-1,0-1.4,0c0-0.5,0-1,0-1.4C34.7,54.5,35.1,54.5,35.7,54.5z"/>
</svg>
