<?xml version="1.0" encoding="utf-8"?>
<!-- Generator: Adobe Illustrator 25.0.0, SVG Export Plug-In . SVG Version: 6.00 Build 0)  -->
<svg version="1.1" id="Layer_1" xmlns="http://www.w3.org/2000/svg" xmlns:xlink="http://www.w3.org/1999/xlink" x="0px" y="0px"
	 viewBox="0 0 70 70" style="enable-background:new 0 0 70 70;" xml:space="preserve">
<style type="text/css">
	.st0{fill:#CF51CE;}
	.st1{fill:#FFFFFF;}
	.st2{fill-rule:evenodd;clip-rule:evenodd;fill:#FFFFFF;}
</style>
<g>
	<path class="st0" d="M15,0h40c8.3,0,15,6.7,15,15v40c0,8.3-6.7,15-15,15H15C6.7,70,0,63.3,0,55V15C0,6.7,6.7,0,15,0z"/>
</g>
<path class="st1" d="M14.2,51.6h21.6V54c0,1.3,1.1,2.4,2.4,2.4h3.2c0.7,0,1.4-0.3,1.8-0.8c0,0,0,0,0,0c0.6,0.5,1.3,0.8,2.2,0.8H55
	c1.3,0,2.4-1.1,2.4-2.4c0-0.4-0.1-0.8-0.3-1.2c1.1-0.7,1.5-2.1,0.8-3.2c0.6-0.4,1-1,1.1-1.7c0.1-0.7-0.1-1.4-0.6-1.9
	c0.6-0.7,0.8-1.7,0.4-2.6c-0.4-0.9-1.2-1.4-2.2-1.4h-2.4V17.2c0-1.8-1.4-3.2-3.2-3.2H14.2c-1.8,0-3.2,1.4-3.2,3.2v31.2
	C11,50.2,12.4,51.6,14.2,51.6z M41.4,54.8h-3.2c-0.4,0-0.8-0.4-0.8-0.8v-7.2c0-0.4,0.4-0.8,0.8-0.8h3.2c0.4,0,0.8,0.4,0.8,0.8V54
	C42.2,54.4,41.8,54.8,41.4,54.8z M57.4,44.4c0,0.4-0.4,0.8-0.8,0.8h-2.4c-0.4,0-0.8,0.4-0.8,0.8s0.4,0.8,0.8,0.8h2.4
	c0.4,0,0.8,0.4,0.8,0.8s-0.4,0.8-0.8,0.8h-2.4c-0.4,0-0.8,0.4-0.8,0.8s0.4,0.8,0.8,0.8h1.6c0.4,0,0.8,0.4,0.8,0.8s-0.4,0.8-0.8,0.8
	h-1.6c-0.4,0-0.8,0.4-0.8,0.8s0.4,0.8,0.8,0.8H55c0.4,0,0.8,0.4,0.8,0.8s-0.4,0.8-0.8,0.8h-9.6c-0.9,0-1.6-0.7-1.6-1.6v-6.7
	c1-0.6,1.8-1.6,2.1-2.7c0.7-2.1,1.1-4.4,1.1-6.6c0-0.1,0.1-0.2,0.2-0.2c0.3-0.1,1-0.2,1.7,1.1c0.4,0.8,0.6,1.6,0.5,2.5v2.3
	c0,0.4,0.4,0.8,0.8,0.8h6.4C57,43.6,57.4,44,57.4,44.4z M51,42v-1.5c0-1.1-0.2-2.2-0.7-3.2c-0.8-1.5-2-2.2-3.4-2
	c-0.9,0.2-1.5,0.9-1.5,1.8c0,2.1-0.3,4.1-1,6.1c-0.2,0.7-0.7,1.4-1.4,1.8c-0.4-0.4-1-0.6-1.6-0.7h-3.2c-1.3,0-2.4,1.1-2.4,2.4V50
	H14.2c-0.9,0-1.6-0.7-1.6-1.6V22h40v20H51z M14.2,15.6H51c0.9,0,1.6,0.7,1.6,1.6v3.2h-40v-3.2C12.6,16.3,13.3,15.6,14.2,15.6z"/>
<path class="st2" d="M15.8,18c0,0.4-0.4,0.8-0.8,0.8s-0.8-0.4-0.8-0.8s0.4-0.8,0.8-0.8S15.8,17.6,15.8,18z"/>
<path class="st2" d="M19,18c0,0.4-0.4,0.8-0.8,0.8s-0.8-0.4-0.8-0.8s0.4-0.8,0.8-0.8S19,17.6,19,18z"/>
<path class="st2" d="M22.2,18c0,0.4-0.4,0.8-0.8,0.8s-0.8-0.4-0.8-0.8s0.4-0.8,0.8-0.8S22.2,17.6,22.2,18z"/>
<path class="st1" d="M17.4,38.8h12.8c1.3,0,2.4-1.1,2.4-2.4v-9.6c0-1.3-1.1-2.4-2.4-2.4H17.4c-1.3,0-2.4,1.1-2.4,2.4v9.6
	C15,37.7,16.1,38.8,17.4,38.8z M19.4,37.2l3.7-5.8l1.8,2.2l-2.3,3.6H19.4z M30.2,37.2h-5.7l4.2-6.6l2.3,2.9v2.9
	C31,36.8,30.6,37.2,30.2,37.2z M16.6,26.8c0-0.4,0.4-0.8,0.8-0.8h12.8c0.4,0,0.8,0.4,0.8,0.8v4.1l-1.8-2.2c-0.2-0.2-0.4-0.3-0.7-0.3
	c-0.3,0-0.5,0.1-0.6,0.4l-2.2,3.4l-2.1-2.7c-0.2-0.2-0.4-0.3-0.7-0.3c-0.3,0-0.5,0.1-0.6,0.4l-4.9,7.6h-0.1c-0.4,0-0.8-0.4-0.8-0.8
	V26.8L16.6,26.8z"/>
<path class="st2" d="M19.8,28.4c0,0.4-0.4,0.8-0.8,0.8s-0.8-0.4-0.8-0.8s0.4-0.8,0.8-0.8S19.8,28,19.8,28.4z"/>
<path class="st2" d="M49.4,25.2H35.8c-0.4,0-0.8,0.4-0.8,0.8s0.4,0.8,0.8,0.8h13.6c0.4,0,0.8-0.4,0.8-0.8S49.8,25.2,49.4,25.2z"/>
<path class="st2" d="M49.4,28.4H35.8c-0.4,0-0.8,0.4-0.8,0.8s0.4,0.8,0.8,0.8h13.6c0.4,0,0.8-0.4,0.8-0.8S49.8,28.4,49.4,28.4z"/>
<path class="st2" d="M49.4,31.6H35.8c-0.4,0-0.8,0.4-0.8,0.8s0.4,0.8,0.8,0.8h13.6c0.4,0,0.8-0.4,0.8-0.8S49.8,31.6,49.4,31.6z"/>
<path class="st2" d="M43,34.8h-7.2c-0.4,0-0.8,0.4-0.8,0.8s0.4,0.8,0.8,0.8H43c0.4,0,0.8-0.4,0.8-0.8S43.4,34.8,43,34.8z"/>
<path class="st2" d="M34.2,42H15.8c-0.4,0-0.8,0.4-0.8,0.8c0,0.4,0.4,0.8,0.8,0.8h18.4c0.4,0,0.8-0.4,0.8-0.8
	C35,42.4,34.6,42,34.2,42z"/>
<path class="st2" d="M31.8,45.2h-16c-0.4,0-0.8,0.4-0.8,0.8s0.4,0.8,0.8,0.8h16c0.4,0,0.8-0.4,0.8-0.8S32.2,45.2,31.8,45.2z"/>
</svg>
