<svg xmlns="http://www.w3.org/2000/svg" viewBox="0 0 70 70"><path d="M15 0h40c8.3 0 15 6.7 15 15v40c0 8.3-6.7 15-15 15H15C6.7 70 0 63.3 0 55V15C0 6.7 6.7 0 15 0z" fill="#cf51ce"/><path d="M24.3 58.2c-.9-.4-1.3-1-1.2-1.9v-1.5h-7.5c-1.2 0-1.7-.6-1.7-1.7v-1.5c0-.5.3-.8.7-.8s.7.3.7.8v1.5c0 .2.1.3.3.3h7.5V49c-1.8-1.2-2.4-1.9-2.7-4.1-1.2 0-2.3-.1-3.4 0-1 .1-1.6 1.2-1.7 2.2v1.4c0 .5-.3.8-.7.8s-.6-.5-.6-1v-1.5c.1-1.2.7-2.1 1.6-2.8.1-.1.2-.1.3-.2-.4-1.3-.9-2.4-1.2-3.6-1.5-6.2-.6-11.9 3-17.2.2-.3.3-.5.1-.9-.5-1-.3-2.1.5-2.9s1.8-1.1 2.9-.6c.2.2.4.1.6-.1 1.2-.8 2.2-1.5 3.4-2.3.5-.3.9-.2 1.1.2.2.4 0 .7-.4 1-1.1.8-2.1 1.5-3.2 2.2-.2.1-.2.3-.1.5.4 1 .2 1.9-.5 2.6-.7.8-1.5 1.1-2.6.8-.3-.1-.4 0-.6.2-1.9 2.8-3.1 5.9-3.4 9.4-.4 3.5.2 6.8 1.5 10 .1.3.3.4.7.4h4c.1-.4 0-.6-.2-.8-1.2-1-1.9-2.1-2.1-3.6 0-.3-.1-.4-.4-.5-1.7-.5-2.3-2.6-1.1-4 .1-.1.2-.4.2-.6v-4.3c0-2.1 1.4-3.7 3.3-4.1.3-.1.7-.1 1-.1h4.4c1 0 1.9.3 2.7 1 .1.1.3.1.4.1.9-.4 1.7-.5 2.7-.5H34c.4 0 .7.3.8.7 0 .4-.3.7-.8.7h-2c-1.7 0-3.2 1.4-3.3 3.1-.1 1.5 0 2.9 0 4.4v.2c.4.1.4-.1.5-.4.2-1.1.6-2 1.2-2.9.4-.5.6-.6 1.2-.4 1.8.6 3.6 1.1 5.5 1.3.5 0 1.1 0 1.5-.1.3-.1.7-.3.9-.5.4-.4.9-.4 1.2.1.5.8.9 1.6 1 2.5 0 .2.1.5.4.4v-.3V32c0-.5-.1-.8-.7-.8-.4-.1-.6-.4-.6-.8 0-.8-.3-1.4-.8-1.9-.6-.7-1.4-1-2.1-1h-.8c-.4 0-.7-.3-.7-.7s.3-.7.7-.7c1.1-.1 2.1.1 3 .6 1-1 2.1-1.3 3.4-1.2h4.3c1.8 0 3.3 1.2 3.8 2.9 0 .1.1.3.3.4.6.4.9 1 .9 1.6v3.3c0 .2.1.5.3.6 1.3 1.4.7 3.4-1.1 4-.3.1-.3.2-.4.4-.3 1.5-1 2.7-2.1 3.7-.5.1-.5.4-.7.6l.1.1h4c.4 0 .5-.1.7-.4 1.4-3.2 1.8-6.5 1.5-9.9-.3-3.4-1.5-6.5-3.3-9.3-.2-.3-.4-.4-.7-.3-1 .3-1.8 0-2.5-.8s-.9-1.6-.5-2.6c-.1 0-.2-.2-.4-.4-2.8-2.2-6-3.7-9.6-4.3-.4-.1-.6 0-.8.4-1 1.7-3.5 1.6-4.4 0-.2-.3-.4-.4-.7-.3-1.2.3-2.3.6-3.5.9-.2.1-.6.1-.8 0-.2-.1-.4-.4-.3-.6.1-.2.3-.6.5-.6 1.2-.4 2.2-.6 3.4-.9h.2c.6 0 .9-.2 1.1-.8.5-1.2 1.4-1.6 2.5-1.6 1.1.1 1.9.6 2.3 1.6.2.4.4.5.8.6 3.9.6 7.3 2 10.2 4.5.3.2.5.3.9.1 1-.4 2.1-.1 2.8.7.7.8.9 1.9.4 2.9-.1.2-.2.4 0 .7 4.4 6.5 4.9 13.3 2 20.6 0 .1-.1.2-.1.3.2.1.3.2.5.4 1 .8 1.5 1.7 1.5 3v5.9c0 1.2-.6 1.7-1.7 1.7h-7.5v1.5c.1 1-.3 1.5-1.2 1.9-7.3.2-14.5.2-21.9.2zm15.9-11.1c-.3 3.1-2.6 4.7-4.8 4.7-1.2 0-2.1-.3-3-1.1-1.3-1-1.8-2.2-1.9-3.8h-3.1c-1.7 0-2.8 1.1-2.8 2.8v6.4c0 .4.1.6.6.6h20.6c.2 0 .5.1.5-.3v-6.9c0-1.3-1.1-2.4-2.2-2.4-1.5-.1-2.6 0-3.9 0zm-.3-13.2c-3.1 1.1-5.8-.1-8.6-.8-.1.1-.2.2-.2.4-.5.7-.7 1.5-.7 2.2 0 1.6-.1 3.3.1 4.8.3 2.5 2.6 4.4 5.1 4.2s4.5-2.2 4.5-4.7v-4.4c.1-.6-.1-1.1-.2-1.7zm-18.8-1.5c-.1.6-.3 1.1-.4 1.6-.1 1.5-.1 3 0 4.4.2 2.6 2.5 4.4 5 4 1.3-.2 2.3-1 3-2-.1 0-.2-.1-.2-.1-1.6-.7-2.2-2.2-1.4-3.8 0-.1.1-.1.1-.2v-2.8c-2.1 0-4-.5-6.1-1.1zm34.1 20.9v-6.5c0-1-.8-1.9-1.7-2-1.2-.1-2.2 0-3.4 0-.3 2.1-.9 3-2.7 4.1v4.4h7.8zm-13.3-13c0 .1.1.2.1.2 1 1.5 2.9 2.2 4.5 1.8 1.8-.5 3.2-1.9 3.3-3.8.1-1.4.1-2.8 0-4.2 0-.5-.2-1.1-.2-1.5-2.2 1.1-4.3.4-6.4 0v2.9c0 .3.1.5.2.7.7 1.4.2 3-1.3 3.6 0 .2-.1.3-.2.3zm-.8-12.6c.3.7.6 1.4.9 2 .1.3.2.4.4.6.3.3.6.6.9 1l.4.4c.7.2 1.3.4 1.9.4 1 .1 1.8.1 2.8 0 .3 0 .5-.4.7-.6.2-.2.4-.5.6-.5.2 0 .5.2.7.4.3.4.5.8.7 1.3v-2c0-.1-.2-.3-.3-.4-.5-.1-.7-.4-.7-.9-.1-1.3-1.1-2.2-2.3-2.2h-4.9c-.9-.2-1.4.1-1.8.5zm-21.5 4.7c.2-.3.4-.6.5-.9.4-.6.6-.7 1.3-.5 1 .3 1.9.5 2.9.8 1 .2 2 .4 3.1.2-.1-1.6.1-3.2 1.3-4.4-.5-.4-1-.6-1.5-.6h-4.8c-1.5 0-2.5 1-2.6 2.4-.3 1-.2 2.1-.2 3zm17.7 13.4c-1.5.4-2 .5-4.1 0 .3 1.2-.4 1.5-1.4 1.3.1 1.9 1.6 3.5 3.6 3.5 1.9-.1 3.5-1.6 3.4-3.4-.3-.2-.8-.2-1-.4-.4-.2-.4-.6-.5-1zm-13.6 1.7c.5-.5 1-.9 1.5-1.3.8-.5 1.5-.6 2.5-.6.2 0 .4-.1.4-.2.1-.2.1-.5.2-.9-.9.1-1.5-.1-1.4-1.2-1.3.4-2.4.4-3.6.1-.1.4-.2.8-.4 1-.2.2-.7.2-1 .3-.1 1.2.7 2.3 1.8 2.8zm20.1-3.9c-.2 1-.2 1-1.3 1.2-.1.9 0 1 .9 1 1.1 0 2 .3 2.8 1.1.3.2.5.5.8.8 1.2-.5 2-1.8 1.8-2.8-1.1-.1-1.2 0-1.3-1.2-1.3.2-2.5.1-3.7-.1zM20.2 22.3c.7 0 1.3-.6 1.3-1.3s-.6-1.3-1.2-1.3c-.7 0-1.3.5-1.3 1.2-.1.8.5 1.4 1.2 1.4zm15.1-6.8c.7 0 1.3-.6 1.3-1.3s-.6-1.2-1.3-1.3c-.7 0-1.3.6-1.3 1.3.1.8.6 1.3 1.3 1.3zm15.1 6.8c.7 0 1.3-.6 1.3-1.3s-.5-1.2-1.2-1.3c-.7 0-1.3.5-1.3 1.2 0 .8.6 1.4 1.2 1.4zM31.8 45.7c.1-.6-.1-1-.5-1-.6-.1-1.2 0-1.8 0 0 .4-.1.7-.1 1h2.4zm9.3-1h-1.5c-.7 0-1 .3-.8 1h2.4c0-.4 0-.7-.1-1zm1.3-1.4c0-.9-.9-1-1.2-1.5-.3.6-.5 1-.8 1.5h2zm-12.4 0c-.3-.5-.5-1-.8-1.5-.3.3-.5.5-.8.7-.3.2-.6.4-.4.8h2zm-1-4.4v-2.2c-.6.1-.9.5-.9 1s.3 1 .9 1.2zm12.6-2.2v2.2c.6-.1.9-.6.9-1.1 0-.5-.4-.9-.9-1.1zm-22.3-1.4c-.5.2-.7.6-.7 1s.2.7.7.9v-1.9zm32 1.9c.5-.2.7-.5.7-1 0-.4-.2-.7-.7-.9v1.9z" fill="#fff"/></svg>