<svg version="1.1" id="Layer_1" xmlns="http://www.w3.org/2000/svg" x="0" y="0" viewBox="0 0 70 70" xml:space="preserve"><style>.st1{fill:#fff}</style><path d="M15 0h40c8.3 0 15 6.7 15 15v40c0 8.3-6.7 15-15 15H15C6.7 70 0 63.3 0 55V15C0 6.7 6.7 0 15 0z" fill="#cf51ce"/><path class="st1" d="M34.5 58.9c-.9-.2-1.7-.5-2.3-1.2-.3-.5-.6-1.1-.9-1.6-.1-.3-.2-.4-.5-.5-1.8-.3-3.6-1-5.2-1.8-2.6-1.3-4.9-3.1-6.7-5.3-.2-.3-.4-.3-.7-.2-1.7.6-3.6-.1-4.5-1.7-.9-1.6-.5-3.6 1-4.7.3-.2.3-.4.2-.8-1.2-4-1.2-8.1 0-12.2.1-.3.1-.5-.2-.7-1.5-1.1-1.9-3.1-1-4.7.9-1.6 2.7-2.3 4.5-1.7.3.1.5 0 .7-.2 1.8-2.3 4.1-4 6.7-5.3 1.6-.8 3.3-1.4 5-1.7.4-.1.7-.2.8-.8.3-1.6 1.8-2.7 3.6-2.7 1.7 0 3.2 1.2 3.6 2.9.1.4.3.5.6.6 2.8.5 5.3 1.6 7.7 3.3 1.6 1.1 2.9 2.3 4.1 3.8.2.3.4.3.8.2 1.6-.6 3.6.1 4.5 1.6.9 1.6.5 3.6-.9 4.7-.3.2-.3.4-.3.8 1.2 4 1.2 8.1 0 12.2-.1.3-.1.5.2.7 1.4 1 1.8 2.9 1.2 4.5-.8 1.6-2.5 2.6-4.2 2.1-.8-.2-1.1 0-1.6.5-3 3.4-6.8 5.6-11.3 6.6-.4.1-.7.3-.8.8-.4 1.4-1.4 2.3-2.7 2.7-.1 0-.2.1-.3.1-.5-.3-.8-.3-1.1-.3zm.4-34.4c-5.8 0-10.5 4.7-10.5 10.5s4.7 10.5 10.5 10.5S45.4 40.7 45.4 35c0-5.8-4.7-10.5-10.5-10.5zm-3.5-8.6c-4.7.9-8.6 3.2-11.6 6.9.8 1 1.1 2.1.8 3.4 0 .1.1.3.2.3.9.5 1.8 1 2.7 1.4.4.2.8.5 1.2.7C27.2 25 30.6 23 34.9 23s7.7 2.1 10.1 5.6c1.2-.6 2.3-1.2 3.4-1.8.5-.3.9-.5.8-1.3-.2-1 .2-1.9.9-2.7-3-3.7-6.8-6-11.6-6.9-.5 1.4-1.4 2.3-2.9 2.6v3h-1.5v-3c-1.3-.4-2.2-1.3-2.7-2.6zM19.8 47.2c3.1 3.7 6.8 6 11.6 6.9.5-1.4 1.4-2.3 2.9-2.6v-3h1.5v3c1.4.3 2.3 1.2 2.8 2.6 4.7-1 8.6-3.2 11.6-6.9-.9-1.4-1-1.8-.8-3.4 0-.1-.1-.3-.1-.3-1.3-.8-2.7-1.4-4-2.2-2.5 3.6-5.8 5.6-10.2 5.6s-7.7-2.1-10.2-5.6c-1.4.8-2.7 1.4-4 2.2-.1.1-.2.2-.1.3.1 1.3-.2 2.4-1 3.4zm4.3-7.2c-1.4-3.4-1.4-6.7 0-10.1-1.4-.8-2.8-1.6-4.2-2.3-1 1-2.1 1.4-3.4 1.3-1.2 4-1.2 8 0 12.1 1.4-.1 2.5.3 3.4 1.3 1.3-.8 2.7-1.5 4.2-2.3zm26 2.3c.9-.9 1.9-1.4 3.2-1.4.1 0 .3-.2.3-.3.7-2.2 1-4.4.8-6.7-.1-1.7-.3-3.4-1-5-1.3.1-2.4-.3-3.3-1.2-.1-.1-.3-.1-.4 0-.6.3-1.2.7-1.8 1l-2.1 1.2c1.4 3.4 1.4 6.7 0 10.1 1.5.8 2.8 1.5 4.3 2.3zM34.9 17c1.2 0 2.3-1 2.3-2.2 0-1.2-1-2.3-2.2-2.3-1.2 0-2.3 1-2.3 2.3 0 1.1 1 2.2 2.2 2.2zm-15.7 8.2c0-1.2-1-2.3-2.3-2.3-1.2 0-2.3 1-2.3 2.3 0 1.2 1 2.2 2.3 2.2 1.3 0 2.3-1 2.3-2.2zm35.9 0c0-1.2-1-2.3-2.2-2.3-1.2 0-2.3 1-2.3 2.2 0 1.2 1 2.3 2.3 2.3 1.2.1 2.2-.9 2.2-2.2zM19.2 44.7c0-1.2-1-2.3-2.3-2.3-1.2 0-2.3 1-2.3 2.3 0 1.2 1 2.3 2.3 2.3 1.3-.1 2.3-1.1 2.3-2.3zm35.9 0c0-1.2-1-2.3-2.2-2.3-1.2 0-2.3 1-2.3 2.2 0 1.2 1 2.3 2.3 2.3 1.2 0 2.2-1 2.2-2.2zM34.9 53c-1.2 0-2.3 1-2.3 2.2 0 1.2 1 2.3 2.3 2.3 1.2 0 2.3-1 2.3-2.3 0-1.3-1-2.2-2.3-2.2z"/><path class="st1" d="M32.5 34.1c-1.4-1.3-1.6-2.9-1.2-4.6.4-1.8 2.2-2.9 3.9-2.8 2 .2 3.3 1.7 3.4 3.7.1 1.4-.2 2.6-1.4 3.6.2.1.4.3.6.5 1.1.7 2.3 1.4 3.4 2 .3.1.4.3.3.7v2c.1.9-.4 1.5-1.2 1.8-.8.3-1.6.5-2.3.5-2.5.2-5 .3-7.5-.1l-1.2-.3c-.8-.3-1.3-1-1.2-1.8v-2.1c0-.3.1-.4.3-.5 1.2-.7 2.3-1.4 3.4-2.1.3-.2.5-.3.7-.5zm2 6.1c1.4-.1 2.3-.1 3.3-.1.6-.1 1.3-.2 1.9-.3.3-.1.4-.3.4-.6.2-1.1-.2-1.8-1.3-2.3-.1-.1-.3-.1-.3-.2-.8-.5-1.6-1.2-2.5-1.7-.1-.1-.3-.1-.4-.1H34c-.1 0-.3 0-.4.1-.9 1-2.1 1.5-3.1 2.1-.7.4-1 .8-.9 1.6.1 1 .1 1 1 1.2h.1c1.5.1 2.9.3 3.8.3zm-1.8-9.4v.6c.1 1.2 1 2 2.1 2.1 1.1.1 2.1-.7 2.3-1.8.1-.6.1-1.2-.1-1.8-.3-1.4-2-2.1-3.2-1.4-.8.5-1.1 1.3-1.1 2.3zM35.7 15.4h-1.4V14h1.4v1.4zM17.7 25.9h-1.4v-1.4h1.4v1.4zM53.6 24.5v1.4h-1.4v-1.4h1.4zM17.7 45.4h-1.4V44h1.4v1.4zM53.6 44v1.4h-1.4V44h1.4zM35.7 54.5v1.4h-1.4v-1.4h1.4z"/></svg>