<?xml version="1.0" encoding="utf-8"?><svg viewBox="0 0 70 70" xmlns="http://www.w3.org/2000/svg" xmlns:xlink="http://www.w3.org/1999/xlink"><style>:root>svg{display:none}:root>svg:target{display:block}</style><svg fill="none" viewBox="0 0 70 70" id="Icon1" xmlns="http://www.w3.org/2000/svg"><path d="M55 0H15C6.716 0 0 6.716 0 15v40c0 8.284 6.716 15 15 15h40c8.284 0 15-6.716 15-15V15c0-8.284-6.716-15-15-15z" fill="#CF51CE"/><path d="M45.875 25.55l-4.125 4.125c1.65 2.175 2.25 4.65 1.65 7.35-.525 2.1-1.725 3.825-3.525 5.025-3.525 2.475-8.25 1.95-11.175-1.2-3-3.225-3.15-7.95-.3-11.325 2.55-3.075 7.5-4.575 11.925-1.35 1.35-1.35 2.7-2.7 4.05-4.125-2.4-2.025-5.175-3.225-8.475-3.45v2.625c0 .75-.375 1.2-.975 1.2s-.975-.45-.975-1.2V17.45v-.675c-1.875.075-3.675.45-5.4 1.125-6 2.4-9.825 6.75-11.4 13.05 0 .15-.075.225-.075.375-.15.525-.6.825-1.125.75-.525-.15-.825-.6-.75-1.2.525-2.7 1.575-5.175 3.15-7.35 3.75-5.025 8.625-7.95 14.85-8.55.225 0 .525-.075.825-.075v-2.55c0-.9.3-1.35.975-1.35.6 0 .975.45.975 1.275v6.45c3.75.3 7.05 1.65 9.825 4.05.45-.45.825-.9 1.35-1.425-.975-.675-1.875-1.425-2.925-2.025-1.65-.975-3.375-1.725-5.25-2.1-.15 0-.3-.075-.375-.075a.963.963 0 01-.675-1.2c.15-.525.6-.825 1.2-.675 2.4.45 4.575 1.35 6.6 2.7.975.675 1.875 1.35 3 2.175.075-.3.3-.525.3-.75v-3.075c0-.375.15-.825.45-1.05 1.2-1.275 2.475-2.55 3.75-3.825.375-.375.75-.525 1.2-.3.45.15.6.6.6 1.05v2.925h2.925c.525 0 .9.15 1.125.6.15.525 0 .9-.375 1.2-1.275 1.2-2.475 2.475-3.675 3.675-.3.3-.75.45-1.125.45-.975.075-2.025 0-3 0-.225 0-.525.225-.825.3 1.65 1.875 2.85 3.75 3.75 5.925.9 2.175 1.35 4.35 1.5 6.75h2.625c.75 0 1.2.375 1.2.975s-.45.975-1.2.975h-6.375c-.45 1.65-.675 3.3-1.275 4.8-1.95 5.025-5.55 8.325-10.725 9.9-.15 0-.225.075-.375.075-.6.15-1.05-.15-1.2-.675-.15-.525.15-.975.75-1.2.375-.15.75-.225 1.05-.375 5.7-2.175 8.925-6.375 9.6-12.375V35.9h-2.55c-.75 0-1.2-.375-1.2-.975s.45-.975 1.2-.975h6.45c-.3-4.275-1.8-8.025-4.575-11.175l-1.35 1.35c.075.075.15.225.3.375 1.425 1.725 2.475 3.675 3.075 5.85.3.9.075 1.425-.525 1.65-.6.15-1.05-.225-1.275-1.05-.75-1.95-1.725-3.75-3.075-5.4zM38.9 29.675c-2.25-1.875-6.15-2.025-8.775.675-2.55 2.7-2.55 6.675.075 9.3 2.625 2.625 6.675 2.7 9.3.15 2.7-2.55 2.7-6.45.75-8.85L39.2 32c-.3.225-.225.45-.075.75.525 1.05.75 2.1.45 3.225-.6 2.625-3.3 4.275-5.85 3.6-2.625-.675-4.2-3.45-3.45-6 .825-2.625 3.6-4.2 6.075-3.15 1.05.45 1.65.15 2.175-.6.225 0 .3-.075.375-.15zm-1.35 4.05c-.675.675-1.275 1.35-1.875 1.95-.375.375-.9.375-1.275 0-.375-.375-.45-.825-.15-1.275l.45-.45 1.575-1.575c-1.425-.6-2.85-.15-3.6.975a2.847 2.847 0 00.375 3.6c.975.975 2.4 1.125 3.6.375 1.05-.75 1.5-2.175.9-3.6zM50.9 19.1h2.325c.15 0 .375 0 .45-.075L55.7 17h-1.65c-.675 0-1.05-.375-1.05-1.05v-1.725l-1.95 1.95a.573.573 0 00-.15.375c-.075.9 0 1.65 0 2.55z" fill="#fff"/><path d="M14.75 35.975h-2.625c-.75 0-1.2-.375-1.2-.975s.45-.9 1.125-.975h6.45c.3-1.275.45-2.475.825-3.675.3-.975.75-1.95 1.125-2.85.3-.6.825-.825 1.35-.525.525.3.675.825.3 1.425-.9 1.8-1.5 3.675-1.575 5.7h2.4c.9 0 1.35.3 1.425.975 0 .675-.45.975-1.425.975H16.7c.075 1.575.3 3.075.825 4.5 2.25 6.525 6.675 10.65 13.35 12.3.225.075.525.15.75.3.375.3.525.675.3 1.125-.225.45-.6.675-1.125.6-2.325-.525-4.575-1.35-6.6-2.625-5.4-3.75-8.55-8.85-9.3-15.45 0-.225-.075-.45-.075-.675 0 0 0-.075-.075-.15z" fill="#fff"/><path d="M35.975 55.175V57.8c0 .75-.375 1.2-.975 1.2s-.975-.45-.975-1.2v-5.85-.6c-.975-.15-1.875-.3-2.775-.525C25.175 49.25 21.2 45.5 19.325 39.5c-.075-.225-.15-.375-.15-.6 0-.525.225-.825.675-.975.45-.15.9 0 1.125.45l.225.675c1.65 5.7 6.975 10.05 12.825 10.275v-2.55c0-.75.375-1.2.9-1.2.6 0 .975.45.975 1.2V53.3c1.2-.225 2.4-.375 3.525-.6 2.025-.45 3.825-1.275 5.55-2.4.15-.075.3-.225.45-.3.45-.15.825-.075 1.125.3.3.375.225.825-.075 1.125-.15.15-.375.3-.6.45-2.925 1.875-6.15 2.925-9.6 3.225 0 0-.15.075-.3.075zM51.35 46.325c-.974 0-1.35-.75-.974-1.575a71.769 71.769 0 001.95-4.2c.224-.6.374-1.275.524-1.875.15-.6.6-.9 1.125-.825.526.15.825.6.75 1.275-.45 2.4-1.35 4.575-2.7 6.6-.224.3-.524.525-.675.6zM26.375 23.225c-.225-.225-.6-.45-.75-.825-.225-.45.075-.825.45-1.125 1.425-.9 3-1.65 4.65-2.025.525-.15.9 0 1.125.45.3.525.075 1.2-.525 1.425-1.575.45-3 1.05-4.35 1.95-.075 0-.225 0-.6.15zM24.65 24.65c0 .525-.45.9-.975.9-.525 0-.9-.45-.9-.975 0-.525.45-.9.975-.9.45 0 .9.45.9.975zM49.7 48.35c0 .525-.45.975-.975.975-.525 0-.975-.375-.975-.9s.375-.975.9-.975c.6 0 1.05.375 1.05.9z" fill="#fff"/></svg><svg version="1.1" id="Icon2" x="0" y="0" viewBox="0 0 70 70" xml:space="preserve" xmlns="http://www.w3.org/2000/svg"><style>.bst0{fill:#cf51ce}.bst1,.bst2{fill:#fff}.bst2{fill-rule:evenodd;clip-rule:evenodd}</style><path class="bst0" d="M15 0h40c8.3 0 15 6.7 15 15v40c0 8.3-6.7 15-15 15H15C6.7 70 0 63.3 0 55V15C0 6.7 6.7 0 15 0z"/><path class="bst1" d="M14.2 51.6h21.6V54c0 1.3 1.1 2.4 2.4 2.4h3.2c.7 0 1.4-.3 1.8-.8.6.5 1.3.8 2.2.8H55c1.3 0 2.4-1.1 2.4-2.4 0-.4-.1-.8-.3-1.2 1.1-.7 1.5-2.1.8-3.2.6-.4 1-1 1.1-1.7.1-.7-.1-1.4-.6-1.9.6-.7.8-1.7.4-2.6-.4-.9-1.2-1.4-2.2-1.4h-2.4V17.2c0-1.8-1.4-3.2-3.2-3.2H14.2c-1.8 0-3.2 1.4-3.2 3.2v31.2c0 1.8 1.4 3.2 3.2 3.2zm27.2 3.2h-3.2c-.4 0-.8-.4-.8-.8v-7.2c0-.4.4-.8.8-.8h3.2c.4 0 .8.4.8.8V54c0 .4-.4.8-.8.8zm16-10.4c0 .4-.4.8-.8.8h-2.4c-.4 0-.8.4-.8.8s.4.8.8.8h2.4c.4 0 .8.4.8.8s-.4.8-.8.8h-2.4c-.4 0-.8.4-.8.8s.4.8.8.8h1.6c.4 0 .8.4.8.8s-.4.8-.8.8h-1.6c-.4 0-.8.4-.8.8s.4.8.8.8h.8c.4 0 .8.4.8.8s-.4.8-.8.8h-9.6c-.9 0-1.6-.7-1.6-1.6v-6.7c1-.6 1.8-1.6 2.1-2.7.7-2.1 1.1-4.4 1.1-6.6 0-.1.1-.2.2-.2.3-.1 1-.2 1.7 1.1.4.8.6 1.6.5 2.5v2.3c0 .4.4.8.8.8h6.4c.4-.1.8.3.8.7zM51 42v-1.5c0-1.1-.2-2.2-.7-3.2-.8-1.5-2-2.2-3.4-2-.9.2-1.5.9-1.5 1.8 0 2.1-.3 4.1-1 6.1-.2.7-.7 1.4-1.4 1.8-.4-.4-1-.6-1.6-.7h-3.2c-1.3 0-2.4 1.1-2.4 2.4V50H14.2c-.9 0-1.6-.7-1.6-1.6V22h40v20H51zM14.2 15.6H51c.9 0 1.6.7 1.6 1.6v3.2h-40v-3.2c0-.9.7-1.6 1.6-1.6z"/><path class="bst2" d="M15.8 18c0 .4-.4.8-.8.8s-.8-.4-.8-.8.4-.8.8-.8.8.4.8.8zM19 18c0 .4-.4.8-.8.8s-.8-.4-.8-.8.4-.8.8-.8.8.4.8.8zM22.2 18c0 .4-.4.8-.8.8s-.8-.4-.8-.8.4-.8.8-.8.8.4.8.8z"/><path class="bst1" d="M17.4 38.8h12.8c1.3 0 2.4-1.1 2.4-2.4v-9.6c0-1.3-1.1-2.4-2.4-2.4H17.4c-1.3 0-2.4 1.1-2.4 2.4v9.6c0 1.3 1.1 2.4 2.4 2.4zm2-1.6l3.7-5.8 1.8 2.2-2.3 3.6h-3.2zm10.8 0h-5.7l4.2-6.6 2.3 2.9v2.9c0 .4-.4.8-.8.8zM16.6 26.8c0-.4.4-.8.8-.8h12.8c.4 0 .8.4.8.8v4.1l-1.8-2.2c-.2-.2-.4-.3-.7-.3-.3 0-.5.1-.6.4l-2.2 3.4-2.1-2.7c-.2-.2-.4-.3-.7-.3-.3 0-.5.1-.6.4l-4.9 7.6h-.1c-.4 0-.8-.4-.8-.8v-9.6h.1z"/><path class="bst2" d="M19.8 28.4c0 .4-.4.8-.8.8s-.8-.4-.8-.8.4-.8.8-.8.8.4.8.8zM49.4 25.2H35.8c-.4 0-.8.4-.8.8s.4.8.8.8h13.6c.4 0 .8-.4.8-.8s-.4-.8-.8-.8zM49.4 28.4H35.8c-.4 0-.8.4-.8.8s.4.8.8.8h13.6c.4 0 .8-.4.8-.8s-.4-.8-.8-.8zM49.4 31.6H35.8c-.4 0-.8.4-.8.8s.4.8.8.8h13.6c.4 0 .8-.4.8-.8s-.4-.8-.8-.8zM43 34.8h-7.2c-.4 0-.8.4-.8.8s.4.8.8.8H43c.4 0 .8-.4.8-.8s-.4-.8-.8-.8zM34.2 42H15.8c-.4 0-.8.4-.8.8s.4.8.8.8h18.4c.4 0 .8-.4.8-.8s-.4-.8-.8-.8zM31.8 45.2h-16c-.4 0-.8.4-.8.8s.4.8.8.8h16c.4 0 .8-.4.8-.8s-.4-.8-.8-.8z"/></svg><svg version="1.1" id="Icon3" x="0" y="0" viewBox="0 0 70 70" xml:space="preserve" xmlns="http://www.w3.org/2000/svg"><style>.cst0{fill:#cf51ce}.cst1{fill:#fff}</style><path class="cst0" d="M15 0h40c8.3 0 15 6.7 15 15v40c0 8.3-6.7 15-15 15H15C6.7 70 0 63.3 0 55V15C0 6.7 6.7 0 15 0z"/><path class="cst1" d="M24.3 58.2c-.9-.4-1.3-1-1.2-1.9v-1.5h-7.5c-1.2 0-1.7-.6-1.7-1.7v-1.5c0-.5.3-.8.7-.8s.7.3.7.8v1.5c0 .2.1.3.3.3h7.5V49c-1.8-1.2-2.4-1.9-2.7-4.1-1.2 0-2.3-.1-3.4 0-1 .1-1.6 1.2-1.7 2.2v1.4c0 .5-.3.8-.7.8s-.6-.5-.6-1v-1.5c.1-1.2.7-2.1 1.6-2.8.1-.1.2-.1.3-.2-.4-1.3-.9-2.4-1.2-3.6-1.5-6.2-.6-11.9 3-17.2.2-.3.3-.5.1-.9-.5-1-.3-2.1.5-2.9s1.8-1.1 2.9-.6c.2.2.4.1.6-.1 1.2-.8 2.2-1.5 3.4-2.3.5-.3.9-.2 1.1.2.2.4 0 .7-.4 1-1.1.8-2.1 1.5-3.2 2.2-.2.1-.2.3-.1.5.4 1 .2 1.9-.5 2.6-.7.8-1.5 1.1-2.6.8-.3-.1-.4 0-.6.2-1.9 2.8-3.1 5.9-3.4 9.4-.4 3.5.2 6.8 1.5 10 .1.3.3.4.7.4h4c.1-.4 0-.6-.2-.8-1.2-1-1.9-2.1-2.1-3.6 0-.3-.1-.4-.4-.5-1.7-.5-2.3-2.6-1.1-4 .1-.1.2-.4.2-.6v-4.3c0-2.1 1.4-3.7 3.3-4.1.3-.1.7-.1 1-.1h4.4c1 0 1.9.3 2.7 1 .1.1.3.1.4.1.9-.4 1.7-.5 2.7-.5H34c.4 0 .7.3.8.7 0 .4-.3.7-.8.7h-2c-1.7 0-3.2 1.4-3.3 3.1-.1 1.5 0 2.9 0 4.4v.2c.4.1.4-.1.5-.4.2-1.1.6-2 1.2-2.9.4-.5.6-.6 1.2-.4 1.8.6 3.6 1.1 5.5 1.3.5 0 1.1 0 1.5-.1.3-.1.7-.3.9-.5.4-.4.9-.4 1.2.1.5.8.9 1.6 1 2.5 0 .2.1.5.4.4v-.3V32c0-.5-.1-.8-.7-.8-.4-.1-.6-.4-.6-.8 0-.8-.3-1.4-.8-1.9-.6-.7-1.4-1-2.1-1h-.8c-.4 0-.7-.3-.7-.7s.3-.7.7-.7c1.1-.1 2.1.1 3 .6 1-1 2.1-1.3 3.4-1.2h4.3c1.8 0 3.3 1.2 3.8 2.9 0 .1.1.3.3.4.6.4.9 1 .9 1.6v3.3c0 .2.1.5.3.6 1.3 1.4.7 3.4-1.1 4-.3.1-.3.2-.4.4-.3 1.5-1 2.7-2.1 3.7-.5.1-.5.4-.7.6l.1.1h4c.4 0 .5-.1.7-.4 1.4-3.2 1.8-6.5 1.5-9.9-.3-3.4-1.5-6.5-3.3-9.3-.2-.3-.4-.4-.7-.3-1 .3-1.8 0-2.5-.8s-.9-1.6-.5-2.6c-.1 0-.2-.2-.4-.4-2.8-2.2-6-3.7-9.6-4.3-.4-.1-.6 0-.8.4-1 1.7-3.5 1.6-4.4 0-.2-.3-.4-.4-.7-.3-1.2.3-2.3.6-3.5.9-.2.1-.6.1-.8 0-.2-.1-.4-.4-.3-.6.1-.2.3-.6.5-.6 1.2-.4 2.2-.6 3.4-.9h.2c.6 0 .9-.2 1.1-.8.5-1.2 1.4-1.6 2.5-1.6 1.1.1 1.9.6 2.3 1.6.2.4.4.5.8.6 3.9.6 7.3 2 10.2 4.5.3.2.5.3.9.1 1-.4 2.1-.1 2.8.7.7.8.9 1.9.4 2.9-.1.2-.2.4 0 .7 4.4 6.5 4.9 13.3 2 20.6 0 .1-.1.2-.1.3.2.1.3.2.5.4 1 .8 1.5 1.7 1.5 3v5.9c0 1.2-.6 1.7-1.7 1.7h-7.5v1.5c.1 1-.3 1.5-1.2 1.9-7.3.2-14.5.2-21.9.2zm15.9-11.1c-.3 3.1-2.6 4.7-4.8 4.7-1.2 0-2.1-.3-3-1.1-1.3-1-1.8-2.2-1.9-3.8h-3.1c-1.7 0-2.8 1.1-2.8 2.8v6.4c0 .4.1.6.6.6h20.6c.2 0 .5.1.5-.3v-6.9c0-1.3-1.1-2.4-2.2-2.4-1.5-.1-2.6 0-3.9 0zm-.3-13.2c-3.1 1.1-5.8-.1-8.6-.8-.1.1-.2.2-.2.4-.5.7-.7 1.5-.7 2.2 0 1.6-.1 3.3.1 4.8.3 2.5 2.6 4.4 5.1 4.2s4.5-2.2 4.5-4.7v-4.4c.1-.6-.1-1.1-.2-1.7zm-18.8-1.5c-.1.6-.3 1.1-.4 1.6-.1 1.5-.1 3 0 4.4.2 2.6 2.5 4.4 5 4 1.3-.2 2.3-1 3-2-.1 0-.2-.1-.2-.1-1.6-.7-2.2-2.2-1.4-3.8 0-.1.1-.1.1-.2v-2.8c-2.1 0-4-.5-6.1-1.1zm34.1 20.9v-6.5c0-1-.8-1.9-1.7-2-1.2-.1-2.2 0-3.4 0-.3 2.1-.9 3-2.7 4.1v4.4h7.8zm-13.3-13c0 .1.1.2.1.2 1 1.5 2.9 2.2 4.5 1.8 1.8-.5 3.2-1.9 3.3-3.8.1-1.4.1-2.8 0-4.2 0-.5-.2-1.1-.2-1.5-2.2 1.1-4.3.4-6.4 0v2.9c0 .3.1.5.2.7.7 1.4.2 3-1.3 3.6 0 .2-.1.3-.2.3zm-.8-12.6c.3.7.6 1.4.9 2 .1.3.2.4.4.6.3.3.6.6.9 1l.4.4c.7.2 1.3.4 1.9.4 1 .1 1.8.1 2.8 0 .3 0 .5-.4.7-.6.2-.2.4-.5.6-.5.2 0 .5.2.7.4.3.4.5.8.7 1.3v-2c0-.1-.2-.3-.3-.4-.5-.1-.7-.4-.7-.9-.1-1.3-1.1-2.2-2.3-2.2h-4.9c-.9-.2-1.4.1-1.8.5zm-21.5 4.7c.2-.3.4-.6.5-.9.4-.6.6-.7 1.3-.5 1 .3 1.9.5 2.9.8 1 .2 2 .4 3.1.2-.1-1.6.1-3.2 1.3-4.4-.5-.4-1-.6-1.5-.6h-4.8c-1.5 0-2.5 1-2.6 2.4-.3 1-.2 2.1-.2 3zm17.7 13.4c-1.5.4-2 .5-4.1 0 .3 1.2-.4 1.5-1.4 1.3.1 1.9 1.6 3.5 3.6 3.5 1.9-.1 3.5-1.6 3.4-3.4-.3-.2-.8-.2-1-.4-.4-.2-.4-.6-.5-1zm-13.6 1.7c.5-.5 1-.9 1.5-1.3.8-.5 1.5-.6 2.5-.6.2 0 .4-.1.4-.2.1-.2.1-.5.2-.9-.9.1-1.5-.1-1.4-1.2-1.3.4-2.4.4-3.6.1-.1.4-.2.8-.4 1-.2.2-.7.2-1 .3-.1 1.2.7 2.3 1.8 2.8zm20.1-3.9c-.2 1-.2 1-1.3 1.2-.1.9 0 1 .9 1 1.1 0 2 .3 2.8 1.1.3.2.5.5.8.8 1.2-.5 2-1.8 1.8-2.8-1.1-.1-1.2 0-1.3-1.2-1.3.2-2.5.1-3.7-.1zM20.2 22.3c.7 0 1.3-.6 1.3-1.3s-.6-1.3-1.2-1.3c-.7 0-1.3.5-1.3 1.2-.1.8.5 1.4 1.2 1.4zm15.1-6.8c.7 0 1.3-.6 1.3-1.3s-.6-1.2-1.3-1.3c-.7 0-1.3.6-1.3 1.3.1.8.6 1.3 1.3 1.3zm15.1 6.8c.7 0 1.3-.6 1.3-1.3s-.5-1.2-1.2-1.3c-.7 0-1.3.5-1.3 1.2 0 .8.6 1.4 1.2 1.4zM31.8 45.7c.1-.6-.1-1-.5-1-.6-.1-1.2 0-1.8 0 0 .4-.1.7-.1 1h2.4zm9.3-1h-1.5c-.7 0-1 .3-.8 1h2.4c0-.4 0-.7-.1-1zm1.3-1.4c0-.9-.9-1-1.2-1.5-.3.6-.5 1-.8 1.5h2zm-12.4 0c-.3-.5-.5-1-.8-1.5-.3.3-.5.5-.8.7-.3.2-.6.4-.4.8h2zm-1-4.4v-2.2c-.6.1-.9.5-.9 1s.3 1 .9 1.2zm12.6-2.2v2.2c.6-.1.9-.6.9-1.1 0-.5-.4-.9-.9-1.1zm-22.3-1.4c-.5.2-.7.6-.7 1s.2.7.7.9v-1.9zm32 1.9c.5-.2.7-.5.7-1 0-.4-.2-.7-.7-.9v1.9z"/></svg><svg version="1.1" id="Icon4" x="0" y="0" viewBox="0 0 70 70" xml:space="preserve" xmlns="http://www.w3.org/2000/svg"><style>.dst0{fill:#cf51ce}.dst1{fill:#fff}</style><path class="dst0" d="M15 0h40c8.3 0 15 6.7 15 15v40c0 8.3-6.7 15-15 15H15C6.7 70 0 63.3 0 55V15C0 6.7 6.7 0 15 0z"/><path class="dst1" d="M34.5 58.9c-.9-.2-1.7-.5-2.3-1.2-.3-.5-.6-1.1-.9-1.6-.1-.3-.2-.4-.5-.5-1.8-.3-3.6-1-5.2-1.8-2.6-1.3-4.9-3.1-6.7-5.3-.2-.3-.4-.3-.7-.2-1.7.6-3.6-.1-4.5-1.7-.9-1.6-.5-3.6 1-4.7.3-.2.3-.4.2-.8-1.2-4-1.2-8.1 0-12.2.1-.3.1-.5-.2-.7-1.5-1.1-1.9-3.1-1-4.7.9-1.6 2.7-2.3 4.5-1.7.3.1.5 0 .7-.2 1.8-2.3 4.1-4 6.7-5.3 1.6-.8 3.3-1.4 5-1.7.4-.1.7-.2.8-.8.3-1.6 1.8-2.7 3.6-2.7 1.7 0 3.2 1.2 3.6 2.9.1.4.3.5.6.6 2.8.5 5.3 1.6 7.7 3.3 1.6 1.1 2.9 2.3 4.1 3.8.2.3.4.3.8.2 1.6-.6 3.6.1 4.5 1.6.9 1.6.5 3.6-.9 4.7-.3.2-.3.4-.3.8 1.2 4 1.2 8.1 0 12.2-.1.3-.1.5.2.7 1.4 1 1.8 2.9 1.2 4.5-.8 1.6-2.5 2.6-4.2 2.1-.8-.2-1.1 0-1.6.5-3 3.4-6.8 5.6-11.3 6.6-.4.1-.7.3-.8.8-.4 1.4-1.4 2.3-2.7 2.7-.1 0-.2.1-.3.1-.5-.3-.8-.3-1.1-.3zm.4-34.4c-5.8 0-10.5 4.7-10.5 10.5s4.7 10.5 10.5 10.5S45.4 40.7 45.4 35c0-5.8-4.7-10.5-10.5-10.5zm-3.5-8.6c-4.7.9-8.6 3.2-11.6 6.9.8 1 1.1 2.1.8 3.4 0 .1.1.3.2.3.9.5 1.8 1 2.7 1.4.4.2.8.5 1.2.7C27.2 25 30.6 23 34.9 23s7.7 2.1 10.1 5.6c1.2-.6 2.3-1.2 3.4-1.8.5-.3.9-.5.8-1.3-.2-1 .2-1.9.9-2.7-3-3.7-6.8-6-11.6-6.9-.5 1.4-1.4 2.3-2.9 2.6v3h-1.5v-3c-1.3-.4-2.2-1.3-2.7-2.6zM19.8 47.2c3.1 3.7 6.8 6 11.6 6.9.5-1.4 1.4-2.3 2.9-2.6v-3h1.5v3c1.4.3 2.3 1.2 2.8 2.6 4.7-1 8.6-3.2 11.6-6.9-.9-1.4-1-1.8-.8-3.4 0-.1-.1-.3-.1-.3-1.3-.8-2.7-1.4-4-2.2-2.5 3.6-5.8 5.6-10.2 5.6s-7.7-2.1-10.2-5.6c-1.4.8-2.7 1.4-4 2.2-.1.1-.2.2-.1.3.1 1.3-.2 2.4-1 3.4zm4.3-7.2c-1.4-3.4-1.4-6.7 0-10.1-1.4-.8-2.8-1.6-4.2-2.3-1 1-2.1 1.4-3.4 1.3-1.2 4-1.2 8 0 12.1 1.4-.1 2.5.3 3.4 1.3 1.3-.8 2.7-1.5 4.2-2.3zm26 2.3c.9-.9 1.9-1.4 3.2-1.4.1 0 .3-.2.3-.3.7-2.2 1-4.4.8-6.7-.1-1.7-.3-3.4-1-5-1.3.1-2.4-.3-3.3-1.2-.1-.1-.3-.1-.4 0-.6.3-1.2.7-1.8 1l-2.1 1.2c1.4 3.4 1.4 6.7 0 10.1 1.5.8 2.8 1.5 4.3 2.3zM34.9 17c1.2 0 2.3-1 2.3-2.2 0-1.2-1-2.3-2.2-2.3-1.2 0-2.3 1-2.3 2.3 0 1.1 1 2.2 2.2 2.2zm-15.7 8.2c0-1.2-1-2.3-2.3-2.3-1.2 0-2.3 1-2.3 2.3 0 1.2 1 2.2 2.3 2.2 1.3 0 2.3-1 2.3-2.2zm35.9 0c0-1.2-1-2.3-2.2-2.3-1.2 0-2.3 1-2.3 2.2 0 1.2 1 2.3 2.3 2.3 1.2.1 2.2-.9 2.2-2.2zM19.2 44.7c0-1.2-1-2.3-2.3-2.3-1.2 0-2.3 1-2.3 2.3 0 1.2 1 2.3 2.3 2.3 1.3-.1 2.3-1.1 2.3-2.3zm35.9 0c0-1.2-1-2.3-2.2-2.3-1.2 0-2.3 1-2.3 2.2 0 1.2 1 2.3 2.3 2.3 1.2 0 2.2-1 2.2-2.2zM34.9 53c-1.2 0-2.3 1-2.3 2.2 0 1.2 1 2.3 2.3 2.3 1.2 0 2.3-1 2.3-2.3 0-1.3-1-2.2-2.3-2.2z"/><path class="dst1" d="M32.5 34.1c-1.4-1.3-1.6-2.9-1.2-4.6.4-1.8 2.2-2.9 3.9-2.8 2 .2 3.3 1.7 3.4 3.7.1 1.4-.2 2.6-1.4 3.6.2.1.4.3.6.5 1.1.7 2.3 1.4 3.4 2 .3.1.4.3.3.7v2c.1.9-.4 1.5-1.2 1.8-.8.3-1.6.5-2.3.5-2.5.2-5 .3-7.5-.1l-1.2-.3c-.8-.3-1.3-1-1.2-1.8v-2.1c0-.3.1-.4.3-.5 1.2-.7 2.3-1.4 3.4-2.1.3-.2.5-.3.7-.5zm2 6.1c1.4-.1 2.3-.1 3.3-.1.6-.1 1.3-.2 1.9-.3.3-.1.4-.3.4-.6.2-1.1-.2-1.8-1.3-2.3-.1-.1-.3-.1-.3-.2-.8-.5-1.6-1.2-2.5-1.7-.1-.1-.3-.1-.4-.1H34c-.1 0-.3 0-.4.1-.9 1-2.1 1.5-3.1 2.1-.7.4-1 .8-.9 1.6.1 1 .1 1 1 1.2h.1c1.5.1 2.9.3 3.8.3zm-1.8-9.4v.6c.1 1.2 1 2 2.1 2.1 1.1.1 2.1-.7 2.3-1.8.1-.6.1-1.2-.1-1.8-.3-1.4-2-2.1-3.2-1.4-.8.5-1.1 1.3-1.1 2.3zM35.7 15.4h-1.4V14h1.4v1.4zM17.7 25.9h-1.4v-1.4h1.4v1.4zM53.6 24.5v1.4h-1.4v-1.4h1.4zM17.7 45.4h-1.4V44h1.4v1.4zM53.6 44v1.4h-1.4V44h1.4zM35.7 54.5v1.4h-1.4v-1.4h1.4z"/></svg><svg fill="none" viewBox="0 0 10 9" id="arrow" xmlns="http://www.w3.org/2000/svg"><path d="M5.923 7.534a1.09 1.09 0 01-1.847 0L.384 1.672A1.09 1.09 0 011.307 0h7.385c.858 0 1.38.946.923 1.672L5.923 7.534z" fill="#331A2F" fill-opacity=".9"/></svg><svg fill="none" viewBox="0 0 24 24" id="carbon_phone-filled" xmlns="http://www.w3.org/2000/svg"><path d="M15.123 16.327l1.615-1.615a1.578 1.578 0 011.687-.347l1.97.787a1.572 1.572 0 01.98 1.442V20.2a1.566 1.566 0 01-1.644 1.55C5.935 20.892 3.15 9.21 2.625 4.738A1.565 1.565 0 014.19 3h3.483a1.558 1.558 0 011.442.98l.786 1.97a1.557 1.557 0 01-.339 1.687L7.947 9.252s.93 6.296 7.176 7.075z" fill="#331A2F"/></svg><svg fill="none" viewBox="0 0 23 23" id="entry" xmlns="http://www.w3.org/2000/svg"><path d="M1.807 15.178c-.585.221-.884.879-.606 1.439a11.5 11.5 0 10.746-11.52c-.348.52-.136 1.21.415 1.506.551.295 1.232.083 1.593-.428a9.235 9.235 0 11-.624 9.633c-.292-.554-.94-.852-1.524-.63z" fill="#fff"/><path d="M1.438 10.6a.9.9 0 100 1.8v-1.8zm15.01 1.536a.9.9 0 000-1.272l-5.727-5.728A.9.9 0 109.45 6.409l5.09 5.091-5.09 5.091a.9.9 0 001.272 1.273l5.728-5.728zm-15.01.264h14.374v-1.8H1.438v1.8z" fill="#fff"/></svg><svg fill="none" viewBox="0 0 48 49" id="spent" xmlns="http://www.w3.org/2000/svg"><path d="M0 44.075v-19.95c.3-.975 1.05-1.5 1.875-1.95.3-.15.6-.3.9-.375.375-.075.45-.3.45-.6V7.1c0-3.375 2.4-5.85 5.625-5.85h33.375c1.575 0 2.55.975 2.55 2.625V10.925c2.25.75 3.225 2.025 3.225 4.35v23.25c0 .45 0 .9-.15 1.35-.45 1.8-2.025 3-4.05 3H23.25v.3c.075 1.125-.45 1.95-1.425 2.475-.825.45-1.725.825-2.55 1.05-2.4.675-4.95.9-7.425.9-2.925 0-5.85-.225-8.7-1.2C1.8 46.025.525 45.5 0 44.075zM46.425 22.85v-.525-7.2c0-1.725-.975-2.7-2.7-2.7H9c-1.5 0-2.85-.45-3.975-1.425-.075-.075-.15-.075-.225-.15v10.2c.15 0 .3 0 .45-.075 3.975-.825 7.95-.825 12-.15 1.575.225 3.15.675 4.575 1.5.9.675 1.425 1.425 1.425 2.625-.075 5.25 0 10.425 0 15.675v.6h20.625c1.575 0 2.625-.975 2.625-2.625v-7.275-.45h-3.75c-.6 0-1.2-.075-1.8-.3-1.725-.675-2.7-2.625-2.325-4.425.375-1.875 1.95-3.225 3.825-3.225 1.2-.075 2.55-.075 3.975-.075zM43.2 7.625H7.575c-.825 0-1.2-.3-1.2-.825 0-.525.375-.825 1.2-.825H43.2V3.95c0-.9-.225-1.125-1.125-1.125h-33c-.375 0-.75 0-1.05.075C6 3.35 4.65 5.225 4.8 7.1c.225 2.1 1.875 3.675 3.975 3.675h34.05c.15 0 .225 0 .375-.075V7.625zm-31.575 14.4c-2.25 0-4.5.15-6.675.75-.975.3-1.95.675-2.85 1.125-.675.375-.675.75 0 1.125.525.3 1.05.525 1.575.75 1.725.6 3.45.825 5.25.975 3.15.225 6.3.15 9.45-.6.9-.225 1.8-.6 2.7-1.05.75-.375.75-.825 0-1.275-.45-.3-.975-.525-1.5-.675-2.625-.9-5.25-1.05-7.95-1.125zm-10.05 4.65c0 .675.075 1.35 0 2.025-.075.6.225 1.05.75 1.275 1.125.375 2.175.9 3.375 1.125 3.15.675 6.3.675 9.525.375a18.39 18.39 0 005.25-1.2c.825-.375 1.35-.825 1.2-1.875-.075-.525 0-1.125 0-1.65-6.525 2.325-13.8 2.325-20.1-.075zm0 9.6c0 .75.075 1.425 0 2.1 0 .6.225.975.675 1.125.825.375 1.65.75 2.55.975 4.2 1.05 8.475.975 12.75.225 1.2-.225 2.4-.525 3.45-1.2.225-.15.6-.375.6-.675.075-.825 0-1.725 0-2.625-3.225 1.5-6.6 1.8-9.975 1.8-3.45.075-6.825-.225-10.05-1.725zm0 4.8v2.175c0 .525.15.9.6 1.125.825.375 1.575.75 2.4.975 4.275 1.05 8.625 1.05 12.975.225 1.125-.225 2.25-.75 3.375-1.125.225-.075.6-.375.6-.6.075-.825 0-1.725 0-2.625-6.3 2.25-13.65 2.25-19.95-.15zm20.025-9.6c-3.225 1.5-6.6 1.8-9.975 1.8s-6.825-.3-9.975-1.8V33.8c0 .375.15.675.45.825.6.3 1.2.6 1.8.825 1.95.675 4.05.9 6.075.975 2.85.15 5.7 0 8.475-.75.9-.225 1.8-.675 2.625-1.05.225-.075.525-.45.525-.675v-2.475zm24.75-2.25v-4.8h-4.125c-1.2.075-2.175 1.125-2.175 2.325 0 1.2.9 2.325 2.1 2.4 1.35.15 2.775.075 4.2.075z" fill="#CF51CE"/><path d="M38.025 15.65H32.25c-.3 0-.6-.15-.825-.3-.15-.15-.225-.6-.075-.75.15-.224.45-.45.75-.45.6-.075 1.2 0 1.8 0h10.2c.45.075.825.375.825.825 0 .45-.375.75-.825.75h-4.2c-.675-.075-1.275-.075-1.875-.075zM27.974 15.651h-.825c-.45 0-.75-.3-.75-.75s.3-.825.75-.825h1.725c.45 0 .75.375.75.825 0 .45-.375.75-.825.75h-.825zM42.374 27.65a.832.832 0 01-.825-.825c0-.45.375-.825.825-.825.45 0 .75.375.75.75.075.525-.3.9-.75.9z" fill="#CF51CE"/></svg></svg>