<svg width="70" height="70" viewBox="0 0 70 70" fill="none" xmlns="http://www.w3.org/2000/svg">
<path d="M55 0H15C6.71573 0 0 6.71573 0 15V55C0 63.2843 6.71573 70 15 70H55C63.2843 70 70 63.2843 70 55V15C70 6.71573 63.2843 0 55 0Z" fill="#CF51CE"/>
<path d="M45.8749 25.55C44.5249 26.9 43.1749 28.25 41.7499 29.675C43.3999 31.85 43.9999 34.325 43.3999 37.025C42.8749 39.125 41.6749 40.85 39.8749 42.05C36.3499 44.525 31.6249 44 28.6999 40.85C25.6999 37.625 25.5499 32.9 28.3999 29.525C30.9499 26.45 35.8999 24.95 40.3249 28.175C41.6749 26.825 43.0249 25.475 44.3749 24.05C41.9749 22.025 39.1999 20.825 35.8999 20.6C35.8999 21.5 35.8999 22.325 35.8999 23.225C35.8999 23.975 35.5249 24.425 34.9249 24.425C34.3249 24.425 33.9499 23.975 33.9499 23.225C33.9499 21.275 33.9499 19.4 33.9499 17.45C33.9499 17.225 33.9499 17 33.9499 16.775C32.0749 16.85 30.2749 17.225 28.5499 17.9C22.5499 20.3 18.7249 24.65 17.1499 30.95C17.1499 31.1 17.0749 31.175 17.0749 31.325C16.9249 31.85 16.4749 32.15 15.9499 32.075C15.4249 31.925 15.1249 31.475 15.1999 30.875C15.7249 28.175 16.7749 25.7 18.3499 23.525C22.0999 18.5 26.9749 15.575 33.1999 14.975C33.4249 14.975 33.7249 14.9 34.0249 14.9C34.0249 14.075 34.0249 13.175 34.0249 12.35C34.0249 11.45 34.3249 11 34.9999 11C35.5999 11 35.9749 11.45 35.9749 12.275C35.9749 14.225 35.9749 16.1 35.9749 18.05C35.9749 18.275 35.9749 18.5 35.9749 18.725C39.7249 19.025 43.0249 20.375 45.7999 22.775C46.2499 22.325 46.6249 21.875 47.1499 21.35C46.1749 20.675 45.2749 19.925 44.2249 19.325C42.5749 18.35 40.8499 17.6 38.9749 17.225C38.8249 17.225 38.6749 17.15 38.5999 17.15C38.0749 17 37.7749 16.475 37.9249 15.95C38.0749 15.425 38.5249 15.125 39.1249 15.275C41.5249 15.725 43.6999 16.625 45.7249 17.975C46.6999 18.65 47.5999 19.325 48.7249 20.15C48.7999 19.85 49.0249 19.625 49.0249 19.4C49.0249 18.35 49.0249 17.375 49.0249 16.325C49.0249 15.95 49.1749 15.5 49.4749 15.275C50.6749 14 51.9499 12.725 53.2249 11.45C53.5999 11.075 53.9749 10.925 54.4249 11.15C54.8749 11.3 55.0249 11.75 55.0249 12.2C55.0249 13.175 55.0249 14.075 55.0249 15.125C55.9999 15.125 56.9749 15.125 57.9499 15.125C58.4749 15.125 58.8499 15.275 59.0749 15.725C59.2249 16.25 59.0749 16.625 58.6999 16.925C57.4249 18.125 56.2249 19.4 55.0249 20.6C54.7249 20.9 54.2749 21.05 53.8999 21.05C52.9249 21.125 51.8749 21.05 50.8999 21.05C50.6749 21.05 50.3749 21.275 50.0749 21.35C51.7249 23.225 52.9249 25.1 53.8249 27.275C54.7249 29.45 55.1749 31.625 55.3249 34.025C56.2249 34.025 57.1249 34.025 57.9499 34.025C58.6999 34.025 59.1499 34.4 59.1499 35C59.1499 35.6 58.6999 35.975 57.9499 35.975C55.9999 35.975 54.0499 35.975 52.0999 35.975C51.8749 35.975 51.6499 35.975 51.5749 35.975C51.1249 37.625 50.8999 39.275 50.2999 40.775C48.3499 45.8 44.7499 49.1 39.5749 50.675C39.4249 50.675 39.3499 50.75 39.1999 50.75C38.5999 50.9 38.1499 50.6 37.9999 50.075C37.8499 49.55 38.1499 49.1 38.7499 48.875C39.1249 48.725 39.4999 48.65 39.7999 48.5C45.4999 46.325 48.7249 42.125 49.3999 36.125C49.3999 36.05 49.3999 36.05 49.3999 35.9C48.5749 35.9 47.6749 35.9 46.8499 35.9C46.0999 35.9 45.6499 35.525 45.6499 34.925C45.6499 34.325 46.0999 33.95 46.8499 33.95C48.7999 33.95 50.6749 33.95 52.6249 33.95C52.8499 33.95 53.0749 33.95 53.2999 33.95C52.9999 29.675 51.4999 25.925 48.7249 22.775C48.2749 23.225 47.8249 23.675 47.3749 24.125C47.4499 24.2 47.5249 24.35 47.6749 24.5C49.0999 26.225 50.1499 28.175 50.7499 30.35C51.0499 31.25 50.8249 31.775 50.2249 32C49.6249 32.15 49.1749 31.775 48.9499 30.95C48.1999 29 47.2249 27.2 45.8749 25.55ZM38.8999 29.675C36.6499 27.8 32.7499 27.65 30.1249 30.35C27.5749 33.05 27.5749 37.025 30.1999 39.65C32.8249 42.275 36.8749 42.35 39.4999 39.8C42.1999 37.25 42.1999 33.35 40.2499 30.95C39.8749 31.325 39.5749 31.625 39.1999 32C38.8999 32.225 38.9749 32.45 39.1249 32.75C39.6499 33.8 39.8749 34.85 39.5749 35.975C38.9749 38.6 36.2749 40.25 33.7249 39.575C31.0999 38.9 29.5249 36.125 30.2749 33.575C31.0999 30.95 33.8749 29.375 36.3499 30.425C37.3999 30.875 37.9999 30.575 38.5249 29.825C38.7499 29.825 38.8249 29.75 38.8999 29.675ZM37.5499 33.725C36.8749 34.4 36.2749 35.075 35.6749 35.675C35.2999 36.05 34.7749 36.05 34.3999 35.675C34.0249 35.3 33.9499 34.85 34.2499 34.4C34.3999 34.25 34.5499 34.1 34.6999 33.95C35.2249 33.425 35.7499 32.9 36.2749 32.375C34.8499 31.775 33.4249 32.225 32.6749 33.35C31.9249 34.475 32.0749 35.975 33.0499 36.95C34.0249 37.925 35.4499 38.075 36.6499 37.325C37.6999 36.575 38.1499 35.15 37.5499 33.725ZM50.8999 19.1C51.7249 19.1 52.4749 19.1 53.2249 19.1C53.3749 19.1 53.5999 19.1 53.6749 19.025C54.2749 18.425 54.9499 17.75 55.6999 17C55.0249 17 54.4999 17 54.0499 17C53.3749 17 52.9999 16.625 52.9999 15.95C52.9999 15.425 52.9999 14.9 52.9999 14.225C52.2499 14.975 51.6499 15.575 51.0499 16.175C50.9749 16.25 50.8999 16.4 50.8999 16.55C50.8249 17.45 50.8999 18.2 50.8999 19.1Z" fill="white"/>
<path d="M14.7498 35.975C13.9248 35.975 13.0248 35.975 12.1248 35.975C11.3748 35.975 10.9248 35.6 10.9248 35C10.9248 34.4 11.3748 34.1 12.0498 34.025C14.2248 34.025 16.3248 34.025 18.4998 34.025C18.7998 32.75 18.9498 31.55 19.3248 30.35C19.6248 29.375 20.0748 28.4 20.4498 27.5C20.7498 26.9 21.2748 26.675 21.7998 26.975C22.3248 27.275 22.4748 27.8 22.0998 28.4C21.1998 30.2 20.5998 32.075 20.5248 34.1C21.3498 34.1 22.0998 34.1 22.9248 34.1C23.8248 34.1 24.2748 34.4 24.3498 35.075C24.3498 35.75 23.8998 36.05 22.9248 36.05C21.0498 36.05 19.2498 36.05 17.3748 36.05C17.1498 36.05 16.9248 36.05 16.6998 36.05C16.7748 37.625 16.9998 39.125 17.5248 40.55C19.7748 47.075 24.1998 51.2 30.8748 52.85C31.0998 52.925 31.3998 53 31.6248 53.15C31.9998 53.45 32.1498 53.825 31.9248 54.275C31.6998 54.725 31.3248 54.95 30.7998 54.875C28.4748 54.35 26.2248 53.525 24.1998 52.25C18.7998 48.5 15.6498 43.4 14.8998 36.8C14.8998 36.575 14.8248 36.35 14.8248 36.125C14.8248 36.125 14.8248 36.05 14.7498 35.975Z" fill="white"/>
<path d="M35.9748 55.175C35.9748 56.075 35.9748 56.9 35.9748 57.8C35.9748 58.55 35.5998 59 34.9998 59C34.3998 59 34.0248 58.55 34.0248 57.8C34.0248 55.85 34.0248 53.9 34.0248 51.95C34.0248 51.725 34.0248 51.5 34.0248 51.35C33.0498 51.2 32.1498 51.05 31.2498 50.825C25.1748 49.25 21.1998 45.5 19.3248 39.5C19.2498 39.275 19.1748 39.125 19.1748 38.9C19.1748 38.375 19.3998 38.075 19.8498 37.925C20.2998 37.775 20.7498 37.925 20.9748 38.375C21.0498 38.6 21.1248 38.825 21.1998 39.05C22.8498 44.75 28.1748 49.1 34.0248 49.325C34.0248 48.5 34.0248 47.6 34.0248 46.775C34.0248 46.025 34.3998 45.575 34.9248 45.575C35.5248 45.575 35.8998 46.025 35.8998 46.775C35.8998 48.65 35.8998 50.6 35.8998 52.475C35.8998 52.7 35.8998 52.925 35.8998 53.3C37.0998 53.075 38.2998 52.925 39.4248 52.7C41.4498 52.25 43.2498 51.425 44.9748 50.3C45.1248 50.225 45.2748 50.075 45.4248 50C45.8748 49.85 46.2498 49.925 46.5498 50.3C46.8498 50.675 46.7748 51.125 46.4748 51.425C46.3248 51.575 46.0998 51.725 45.8748 51.875C42.9498 53.75 39.7248 54.8 36.2748 55.1C36.2748 55.1 36.1248 55.175 35.9748 55.175Z" fill="white"/>
<path d="M51.3505 46.3249C50.3755 46.3249 50.0005 45.5749 50.3755 44.7499C51.0505 43.3999 51.7255 41.975 52.3255 40.55C52.5505 39.95 52.7005 39.275 52.8505 38.675C53.0005 38.075 53.4505 37.7749 53.9755 37.8499C54.5005 37.9999 54.8005 38.4499 54.7255 39.1249C54.2755 41.5249 53.3755 43.6999 52.0255 45.7249C51.8005 46.0249 51.5005 46.2499 51.3505 46.3249Z" fill="white"/>
<path d="M26.3754 23.225C26.1504 23 25.7754 22.775 25.6254 22.4C25.4004 21.95 25.7004 21.575 26.0754 21.275C27.5004 20.375 29.0754 19.625 30.7254 19.25C31.2504 19.1 31.6254 19.25 31.8504 19.7C32.1504 20.225 31.9254 20.9 31.3254 21.125C29.7504 21.575 28.3254 22.175 26.9754 23.075C26.9004 23.075 26.7504 23.075 26.3754 23.225Z" fill="white"/>
<path d="M24.6504 24.65C24.6504 25.175 24.2004 25.55 23.6754 25.55C23.1504 25.55 22.7754 25.1 22.7754 24.575C22.7754 24.05 23.2254 23.675 23.7504 23.675C24.2004 23.675 24.6504 24.125 24.6504 24.65Z" fill="white"/>
<path d="M49.7 48.35C49.7 48.875 49.25 49.325 48.725 49.325C48.2 49.325 47.75 48.95 47.75 48.425C47.75 47.9 48.125 47.45 48.65 47.45C49.25 47.45 49.7 47.825 49.7 48.35Z" fill="white"/>
</svg>
